<svg width="35" height="41" viewBox="0 0 35 41" fill="none" xmlns="http://www.w3.org/2000/svg">
<path fill-rule="evenodd" clip-rule="evenodd" d="M32 39.5H3C2.17157 39.5 1.5 38.8284 1.5 38V3C1.5 2.17157 2.17157 1.5 3 1.5H27V8H33.5V38C33.5 38.8284 32.8284 39.5 32 39.5ZM35 8V38C35 39.6569 33.6569 41 32 41H3C1.34315 41 0 39.6569 0 38V3C0 1.34315 1.34315 0 3 0H27H28L35 7V8Z" fill="black"/>
<path d="M0 17H35V38C35 39.6569 33.6569 41 32 41H3C1.34315 41 0 39.6569 0 38V17Z" fill="#7A1C3E"/>
<path d="M3.984 24.42H9.348V25.68H5.58V28.032H8.604V29.232H5.58V31.74H9.552V33H3.984V24.42ZM13.2467 28.596L10.6787 24.42H12.4787L14.3027 27.468L16.1147 24.42H17.7587L15.2267 28.56L17.9747 33H16.1507L14.1347 29.652L12.1187 33H10.4867L13.2467 28.596ZM19.4293 24.42H24.7933V25.68H21.0253V28.032H24.0493V29.232H21.0253V31.74H24.9973V33H19.4293V24.42ZM26.484 24.42H28.08V31.728H31.74V33H26.484V24.42Z" fill="white"/>
</svg>
