<svg width="35" height="41" viewBox="0 0 35 41" fill="none" xmlns="http://www.w3.org/2000/svg">
<path fill-rule="evenodd" clip-rule="evenodd" d="M32 39.5H3C2.17157 39.5 1.5 38.8284 1.5 38V3C1.5 2.17157 2.17157 1.5 3 1.5H27V8H33.5V38C33.5 38.8284 32.8284 39.5 32 39.5ZM35 8V38C35 39.6569 33.6569 41 32 41H3C1.34315 41 0 39.6569 0 38V3C0 1.34315 1.34315 0 3 0H27H28L35 7V8Z" fill="black"/>
<path d="M0 17H35V38C35 39.6569 33.6569 41 32 41H3C1.34315 41 0 39.6569 0 38V17Z" fill="#7A1C3E"/>
<path d="M3.984 24.42H6.744C7.736 24.42 8.512 24.644 9.072 25.092C9.64 25.54 9.924 26.2 9.924 27.072V27.12C9.924 27.992 9.64 28.648 9.072 29.088C8.504 29.52 7.74 29.736 6.78 29.736H5.58V33H3.984V24.42ZM6.744 28.584C7.824 28.584 8.364 28.096 8.364 27.12V27.072C8.364 26.128 7.824 25.656 6.744 25.656H5.58V28.584H6.744ZM13.8754 31.74C14.8274 31.74 15.5394 31.484 16.0114 30.972C16.4834 30.452 16.7194 29.708 16.7194 28.74V28.644C16.7194 26.668 15.7674 25.68 13.8634 25.68H12.9394V31.74H13.8754ZM11.3434 24.42H13.9474C15.3954 24.42 16.4954 24.8 17.2474 25.56C18.0074 26.312 18.3874 27.332 18.3874 28.62V28.728C18.3874 30.024 18.0074 31.06 17.2474 31.836C16.4874 32.612 15.3794 33 13.9234 33H11.3434V24.42ZM19.9567 24.42H25.2727V25.692H21.5527V28.248H24.4807V29.484H21.5527V33H19.9567V24.42Z" fill="white"/>
</svg>
