<svg width="35" height="41" viewBox="0 0 35 41" fill="none" xmlns="http://www.w3.org/2000/svg">
<path fill-rule="evenodd" clip-rule="evenodd" d="M32 39.5H3C2.17157 39.5 1.5 38.8284 1.5 38V3C1.5 2.17157 2.17157 1.5 3 1.5H27V8H33.5V38C33.5 38.8284 32.8284 39.5 32 39.5ZM35 8V38C35 39.6569 33.6569 41 32 41H3C1.34315 41 0 39.6569 0 38V3C0 1.34315 1.34315 0 3 0H27H28L35 7V8Z" fill="black"/>
<path d="M0 17H35V38C35 39.6569 33.6569 41 32 41H3C1.34315 41 0 39.6569 0 38V17Z" fill="#9093A2"/>
<path d="M3.984 24.42H6.864C7.848 24.42 8.628 24.628 9.204 25.044C9.78 25.46 10.068 26.092 10.068 26.94V26.988C10.068 28.18 9.432 28.948 8.16 29.292L10.572 33H8.844L6.6 29.532H5.58V33H3.984V24.42ZM6.864 28.392C7.952 28.392 8.496 27.936 8.496 27.024V26.976C8.496 26.496 8.356 26.156 8.076 25.956C7.804 25.756 7.4 25.656 6.864 25.656H5.58V28.392H6.864ZM14.1022 24.42H16.1902L19.0222 33H17.3662L16.6822 30.876H13.4062L12.7342 33H11.2342L14.1022 24.42ZM13.7782 29.712H16.3102L15.0502 25.728L13.7782 29.712ZM20.3785 24.42H23.2585C24.2425 24.42 25.0225 24.628 25.5985 25.044C26.1745 25.46 26.4625 26.092 26.4625 26.94V26.988C26.4625 28.18 25.8265 28.948 24.5545 29.292L26.9665 33H25.2385L22.9945 29.532H21.9745V33H20.3785V24.42ZM23.2585 28.392C24.3465 28.392 24.8905 27.936 24.8905 27.024V26.976C24.8905 26.496 24.7505 26.156 24.4705 25.956C24.1985 25.756 23.7945 25.656 23.2585 25.656H21.9745V28.392H23.2585Z" fill="white"/>
</svg>
