<svg width="35" height="41" viewBox="0 0 35 41" fill="none" xmlns="http://www.w3.org/2000/svg">
<path fill-rule="evenodd" clip-rule="evenodd" d="M32 39.5H3C2.17157 39.5 1.5 38.8284 1.5 38V3C1.5 2.17157 2.17157 1.5 3 1.5H27V8H33.5V38C33.5 38.8284 32.8284 39.5 32 39.5ZM35 8V38C35 39.6569 33.6569 41 32 41H3C1.34315 41 0 39.6569 0 38V3C0 1.34315 1.34315 0 3 0H27H28L35 7V8Z" fill="black"/>
<path d="M0 17H35V38C35 39.6569 33.6569 41 32 41H3C1.34315 41 0 39.6569 0 38V17Z" fill="#1648C8"/>
<path d="M6.516 31.74C7.468 31.74 8.18 31.484 8.652 30.972C9.124 30.452 9.36 29.708 9.36 28.74V28.644C9.36 26.668 8.408 25.68 6.504 25.68H5.58V31.74H6.516ZM3.984 24.42H6.588C8.036 24.42 9.136 24.8 9.888 25.56C10.648 26.312 11.028 27.332 11.028 28.62V28.728C11.028 30.024 10.648 31.06 9.888 31.836C9.128 32.612 8.02 33 6.564 33H3.984V24.42ZM16.5333 31.836C17.3413 31.836 17.9813 31.556 18.4533 30.996C18.9333 30.428 19.1733 29.676 19.1733 28.74V28.644C19.1733 27.74 18.9333 27.004 18.4533 26.436C17.9813 25.86 17.3333 25.572 16.5093 25.572C15.6773 25.572 15.0213 25.852 14.5413 26.412C14.0693 26.972 13.8333 27.72 13.8333 28.656V28.752C13.8333 29.68 14.0853 30.428 14.5893 30.996C15.0933 31.556 15.7413 31.836 16.5333 31.836ZM16.5093 33.12C15.2133 33.12 14.1653 32.708 13.3653 31.884C12.5653 31.06 12.1653 30.02 12.1653 28.764V28.668C12.1653 27.404 12.5693 26.36 13.3773 25.536C14.1933 24.712 15.2373 24.3 16.5093 24.3C17.7813 24.3 18.8173 24.708 19.6173 25.524C20.4253 26.332 20.8293 27.368 20.8293 28.632V28.728C20.8293 29.992 20.4293 31.04 19.6293 31.872C18.8373 32.704 17.7973 33.12 16.5093 33.12ZM26.1736 33.12C24.8456 33.12 23.8136 32.728 23.0776 31.944C22.3496 31.16 21.9856 30.1 21.9856 28.764V28.668C21.9856 27.388 22.3776 26.34 23.1616 25.524C23.9456 24.7 24.9416 24.288 26.1496 24.288C27.1736 24.288 28.0176 24.544 28.6816 25.056C29.3536 25.568 29.7376 26.312 29.8336 27.288H28.2136C28.1256 26.704 27.9136 26.272 27.5776 25.992C27.2496 25.704 26.7776 25.56 26.1616 25.56C25.4096 25.56 24.8056 25.84 24.3496 26.4C23.8936 26.952 23.6656 27.704 23.6656 28.656V28.752C23.6656 29.72 23.8856 30.476 24.3256 31.02C24.7656 31.556 25.3816 31.824 26.1736 31.824C26.7816 31.824 27.2776 31.672 27.6616 31.368C28.0456 31.056 28.2816 30.604 28.3696 30.012H29.9296C29.8096 31.028 29.4136 31.8 28.7416 32.328C28.0776 32.856 27.2216 33.12 26.1736 33.12Z" fill="white"/>
</svg>
