<svg width="35" height="41" viewBox="0 0 35 41" fill="none" xmlns="http://www.w3.org/2000/svg">
<path fill-rule="evenodd" clip-rule="evenodd" d="M32 39.5H3C2.17157 39.5 1.5 38.8284 1.5 38V3C1.5 2.17157 2.17157 1.5 3 1.5H27V8H33.5V38C33.5 38.8284 32.8284 39.5 32 39.5ZM35 8V38C35 39.6569 33.6569 41 32 41H3C1.34315 41 0 39.6569 0 38V3C0 1.34315 1.34315 0 3 0H27H28L35 7V8Z" fill="black"/>
<path d="M0 17H35V38C35 39.6569 33.6569 41 32 41H3C1.34315 41 0 39.6569 0 38V17Z" fill="#1648C8"/>
<path d="M3.984 24.42H6.864C7.848 24.42 8.628 24.628 9.204 25.044C9.78 25.46 10.068 26.092 10.068 26.94V26.988C10.068 28.18 9.432 28.948 8.16 29.292L10.572 33H8.844L6.6 29.532H5.58V33H3.984V24.42ZM6.864 28.392C7.952 28.392 8.496 27.936 8.496 27.024V26.976C8.496 26.496 8.356 26.156 8.076 25.956C7.804 25.756 7.4 25.656 6.864 25.656H5.58V28.392H6.864ZM13.4344 25.68H11.0464V24.42H17.4304V25.68H15.0424V33H13.4344V25.68ZM18.7613 24.42H24.0773V25.692H20.3573V28.248H23.2853V29.484H20.3573V33H18.7613V24.42Z" fill="white"/>
</svg>
