<svg width="35" height="41" viewBox="0 0 35 41" fill="none" xmlns="http://www.w3.org/2000/svg">
<path fill-rule="evenodd" clip-rule="evenodd" d="M32 39.5H3C2.17157 39.5 1.5 38.8284 1.5 38V3C1.5 2.17157 2.17157 1.5 3 1.5H27V8H33.5V38C33.5 38.8284 32.8284 39.5 32 39.5ZM35 8V38C35 39.6569 33.6569 41 32 41H3C1.34315 41 0 39.6569 0 38V3C0 1.34315 1.34315 0 3 0H27H28L35 7V8Z" fill="black"/>
<path d="M0 17H35V38C35 39.6569 33.6569 41 32 41H3C1.34315 41 0 39.6569 0 38V17Z" fill="#9093A2"/>
<path d="M3.264 32.784L7.644 25.68H3.708V24.42H9.9V24.624L5.616 31.716H9.78V33H3.264V32.784ZM11.3797 24.42H12.9877V33H11.3797V24.42ZM15.0582 24.42H17.8182C18.8102 24.42 19.5862 24.644 20.1462 25.092C20.7142 25.54 20.9982 26.2 20.9982 27.072V27.12C20.9982 27.992 20.7142 28.648 20.1462 29.088C19.5782 29.52 18.8142 29.736 17.8542 29.736H16.6542V33H15.0582V24.42ZM17.8182 28.584C18.8982 28.584 19.4382 28.096 19.4382 27.12V27.072C19.4382 26.128 18.8982 25.656 17.8182 25.656H16.6542V28.584H17.8182Z" fill="white"/>
</svg>
