<svg width="126" height="68" viewBox="0 0 126 68" fill="none" xmlns="http://www.w3.org/2000/svg">
<g clip-path="url(#clip0_106_7762)">
<path d="M37.0381 3.22696C37.0381 3.22696 35.4565 3.05124 32.6977 2.7818C29.9857 2.51821 28.123 1.26472 25.5048 0.778547C23.4254 0.391956 20.9125 0.227948 20.0808 0.181088C19.8933 0.169374 19.7059 0.169374 19.5185 0.181088C18.6867 0.227948 16.1739 0.391956 14.0945 0.778547C11.482 1.26472 9.61352 2.51821 6.90153 2.7818C4.14267 3.04538 2.56116 3.22696 2.56116 3.22696C2.56116 3.22696 0.739502 3.4554 0.739502 3.71313C0.739502 3.97086 0.739502 24.0736 0.739502 24.0736C0.739502 24.0736 0.757074 27.6701 1.48925 30.3704C2.22143 33.0706 3.32263 36.919 6.48565 40.6912C9.64867 44.4633 12.5657 46.3904 12.5657 46.3904C12.5657 46.3904 17.7261 49.6179 19.8055 50.2154C19.8055 48.9501 19.8055 6.07953 19.8055 0.72583C19.8055 6.07953 19.8055 48.9501 19.8055 50.2154C21.879 49.6179 27.0453 46.3904 27.0453 46.3904C27.0453 46.3904 29.9623 44.4575 33.1253 40.6912C36.2883 36.9248 37.3895 33.0706 38.1217 30.3704C38.8539 27.6701 38.8714 24.0736 38.8714 24.0736C38.8714 24.0736 38.8714 3.97086 38.8714 3.71899C38.8714 3.4554 37.0381 3.22696 37.0381 3.22696Z" fill="url(#paint0_linear_106_7762)"/>
<path d="M3.74438 23.3357C3.74438 24.144 3.74438 24.6243 3.74438 24.6243C3.74438 24.6243 3.7561 27.6526 4.37699 29.9253C4.99202 32.198 5.92335 35.443 8.58848 38.6177C11.2536 41.7924 13.7079 43.4208 13.7079 43.4208C13.7079 43.4208 17.9135 46.0508 19.7176 46.6131V23.3357H3.74438Z" fill="#741C2F"/>
<path d="M19.7176 23.1601V3.30341C19.6708 3.30341 19.618 3.30927 19.5712 3.30927C18.8741 3.35027 16.7538 3.49085 15.0024 3.81301C12.8 4.22303 11.2302 5.27737 8.9458 5.49995C6.62625 5.72253 5.29075 5.87483 5.29075 5.87483C5.29075 5.87483 3.74438 6.06812 3.74438 6.28485C3.74438 6.46057 3.74438 18.8432 3.74438 23.166H19.7176V23.1601Z" fill="#616086"/>
<path d="M35.8608 23.3357C35.8608 24.144 35.8608 24.6243 35.8608 24.6243C35.8608 24.6243 35.8491 27.6526 35.2282 29.9253C34.6132 32.198 33.6818 35.443 31.0167 38.6177C28.3516 41.7924 25.8973 43.4208 25.8973 43.4208C25.8973 43.4208 21.6916 46.0508 19.8875 46.6131V23.3357H35.8608Z" fill="#616086"/>
<path d="M19.8933 23.1601V3.30341C19.9402 3.30341 19.9929 3.30927 20.0397 3.30927C20.7368 3.35027 22.8572 3.49085 24.6085 3.81301C26.8109 4.22303 28.3807 5.27737 30.6651 5.49995C32.9847 5.72253 34.3202 5.87483 34.3202 5.87483C34.3202 5.87483 35.8665 6.06812 35.8665 6.28485C35.8665 6.46057 35.8665 18.8432 35.8665 23.166H19.8933V23.1601Z" fill="#741C2F"/>
<path d="M8.34282 17.2675C8.45996 16.1956 8.68255 15.2994 8.9637 14.5497C11.0021 13.5715 12.402 13.3431 12.8823 13.3079C13.0698 13.2962 13.2572 13.3548 13.4036 13.4719L16.2914 15.7212C16.2914 15.7212 14.0304 13.6828 13.3334 13.0619C11.3008 13.0443 9.47916 14.1807 8.98128 14.5204C10.3519 10.9064 13.1518 10.7306 13.1518 10.7306C13.1518 10.7306 12.033 10.3206 10.8439 9.90472C9.58459 10.5081 9.02814 11.1524 8.40725 12.3414C8.14366 12.8452 8.09095 13.8175 8.12023 14.7664C6.85503 13.8117 4.78149 13.2142 4.78149 13.2142C4.78149 13.2142 4.78149 13.2142 4.78149 13.5012C5.77726 13.6008 7.90936 14.7664 8.12609 14.8836C8.17295 16.1078 8.34282 17.2675 8.34282 17.2675Z" fill="white"/>
<path d="M16.859 17.1211C16.859 17.1211 16.2323 16.963 14.2642 16.8107C11.9095 16.7697 8.7055 17.7772 8.7055 17.7772C8.7055 17.7772 10.7205 16.676 13.1454 16.4592C13.1923 16.4534 13.2743 16.4475 13.327 16.4358C14.5219 16.2718 16.6716 16.594 16.6716 16.594L16.531 16.1136C15.9511 15.8794 14.8792 15.8676 14.2583 15.8383C11.4761 15.8091 9.16238 17.086 8.24276 17.578C7.01856 16.8458 4.78101 16.2191 4.78101 16.2191V17.2617L7.53401 18.3278L4.78101 17.5604V18.0349L7.46372 18.7554L4.78101 18.2926V19.7921H7.34657C7.34657 19.7921 7.6043 20.4423 8.27205 20.4423C8.9398 20.4423 9.15066 19.8097 9.15066 19.8097H17.7904L16.859 17.1211Z" fill="white"/>
<path d="M27.9181 13.8762H26.8638V19.9621H27.9181V13.8762Z" fill="white"/>
<path d="M30.2785 13.8762H29.2241V19.9621H30.2785V13.8762Z" fill="white"/>
<path d="M32.6391 13.8762H31.5847V19.9621H32.6391V13.8762Z" fill="white"/>
<path d="M34.9996 13.8762H33.9453V19.9621H34.9996V13.8762Z" fill="white"/>
<path d="M26.512 12.5816H35.0052V10.7131L33.0723 10.0043L26.512 12.5816Z" fill="white"/>
<path d="M24.5793 11.9432L33.0726 8.66302L35.0056 9.42449V10.0044L33.0726 9.30735L24.8136 12.529L24.5793 11.9432Z" fill="white"/>
<path d="M16.3729 33.3521C16.2382 32.1045 15.4533 31.8995 15.4533 31.8995C15.4533 31.8995 12.8468 30.5464 12.7999 30.4937C12.753 30.441 12.7179 30.2828 12.7296 30.1422C12.7413 30.0017 13.0986 29.1582 13.0986 29.1582L13.1865 29.1523C13.2275 29.1465 13.2626 29.1172 13.2744 29.082C13.3329 28.877 13.4969 28.262 13.5262 28.0863C13.5672 27.8754 13.3271 27.9047 13.3271 27.9047C13.3271 27.9047 13.8308 25.5149 11.5874 25.5207C9.34401 25.5266 9.81847 27.6938 9.81847 27.6938L9.80675 27.893C9.80675 27.893 9.74232 27.8578 9.61931 27.934C9.49631 28.0101 9.74818 29.1465 9.86533 29.1523C9.97662 29.1582 9.98833 29.2578 9.98833 29.2578L10.3515 30.154C10.4159 30.3121 10.3515 30.4937 10.1933 30.5757C9.76575 30.7924 8.82856 31.2786 7.28805 32.0693C7.0479 32.1923 6.94832 32.4852 7.06547 32.7254C10.6678 40.2522 16.7888 43.2219 16.7888 43.2219C16.7888 43.2219 16.5077 34.5998 16.3729 33.3521ZM11.7514 36.89L9.99419 31.2142L10.6619 32.3856L11.5933 31.1614L12.5129 32.2744L13.1513 31.2727L11.7514 36.89Z" fill="white"/>
<path d="M27.7539 33.9143C27.5606 33.2641 27.3966 32.1863 27.297 31.7412C27.297 31.7412 26.9866 32.0633 25.4402 34.7285C23.8938 37.3936 24.1691 38.7057 24.1691 38.7057C24.1691 38.7057 27.297 34.541 27.7539 33.9143Z" fill="white"/>
<path d="M32.2701 25.6204C31.3446 26.1651 30.8409 26.7509 30.8409 26.7509C30.8409 26.7509 31.1748 28.5198 30.9815 29.2168L30.8995 28.0629C30.8995 28.0629 30.6652 27.2077 30.5773 27.1667C30.4894 27.1257 29.7924 28.0688 29.7924 28.0688L29.5991 30.9799L29.4878 30.3825C29.4878 30.3825 29.2945 28.2855 29.2242 28.0746C29.1539 27.8638 29.1071 28.3968 28.8845 28.9064C28.6619 29.416 27.7716 31.1088 27.754 31.3607C27.7364 31.6184 27.9297 33.5279 27.9297 33.5279L30.2317 30.7749L22.8923 40.961C22.8923 40.961 22.5819 41.5292 22.6053 41.74C22.6288 41.9451 22.1953 42.6831 22.1953 42.6831L24.8897 39.1862C24.8897 39.1862 25.9675 39.3268 27.7599 36.9897C29.5523 34.6525 32.7973 30.4586 33.3244 27.6178C33.5822 26.0831 33.1956 25.0756 32.2701 25.6204Z" fill="white"/>
<path d="M5.74642 61.9064C5.74642 62.7314 5.51542 62.9734 4.58042 62.9734V63.2154H8.16642V62.9734C7.24242 62.9734 7.00042 62.7314 7.00042 61.9064V59.8164C7.00042 59.6074 7.03342 59.5964 7.20942 59.5964H7.88042C9.69542 59.5964 10.8944 59.0244 10.8944 57.3414C10.8944 56.0214 9.94842 55.2954 8.08942 55.2954H4.58042V55.5374C5.48242 55.5374 5.74642 55.7904 5.74642 56.6044V61.9064ZM7.00042 58.8044V56.3954C7.00042 55.8894 7.08842 55.7574 7.68242 55.7574C8.93642 55.7574 9.58542 56.2964 9.58542 57.4184C9.58542 58.5624 8.85942 59.1894 7.45142 59.1894C7.11042 59.1894 7.00042 59.1014 7.00042 58.8044ZM12.5518 61.9064C12.5518 62.7424 12.2878 62.9734 11.3858 62.9734V63.2154H17.9198L18.5798 61.1364H18.3378C17.8648 62.2474 17.1278 62.7534 15.9508 62.7534H14.5978C13.8718 62.7534 13.8058 62.5884 13.8058 61.9394V56.6044C13.8058 55.7684 14.0588 55.5374 14.9718 55.5374V55.2954H11.3858V55.5374C12.2878 55.5374 12.5518 55.7904 12.5518 56.6044V61.9064ZM19.8621 61.9064C19.8621 62.7314 19.6311 62.9734 18.6961 62.9734V63.2154H22.2821V62.9734C21.3581 62.9734 21.1161 62.7314 21.1161 61.9064V59.8934C21.1161 59.6734 21.2041 59.6074 21.4241 59.6074H22.1501C23.0851 60.8834 24.0641 62.0934 25.1091 63.2154H26.9021V62.9734C26.3851 62.9294 25.3071 61.6974 23.4921 59.3654C24.7901 59.0684 25.4501 58.3644 25.4501 57.3414C25.4501 56.0324 24.5041 55.2954 22.7111 55.2954H18.6961V55.5374C19.5981 55.5374 19.8621 55.7904 19.8621 56.6044V61.9064ZM21.1161 58.9034V56.3514C21.1161 55.7794 21.2591 55.7574 21.9081 55.7574C23.4151 55.7574 24.1411 56.2084 24.1411 57.3854C24.1411 58.7054 23.2501 59.2004 21.4241 59.2004C21.1931 59.2004 21.1161 59.1014 21.1161 58.9034ZM34.5941 61.3784C33.7251 62.4344 32.7901 62.9294 31.5801 62.9294C29.6881 62.9294 28.6871 61.5214 28.6871 59.2774C28.6871 57.0334 29.6661 55.5924 31.5691 55.5924C32.9221 55.5924 33.6811 56.1754 34.2421 57.6164H34.4841L34.3521 55.1854H34.1651C34.0991 55.4714 33.9561 55.5924 33.7691 55.5924C33.4061 55.5924 32.7351 55.1304 31.4481 55.1304C28.8741 55.1304 27.3341 56.7914 27.3341 59.2774C27.3341 61.6204 28.8081 63.3914 31.4261 63.3914C32.8341 63.3914 33.9231 62.7974 34.7921 61.5874L34.5941 61.3784Z" fill="white"/>
<path d="M54.8713 12.6938H53.8713V54.6938H54.8713V12.6938Z" fill="#F2F2F2"/>
<path d="M119.801 18.4277C119.801 18.4277 122.46 19.757 121.609 22.5752C121.609 22.5752 119.429 20.5014 119.801 18.4277Z" fill="white"/>
<path d="M118.951 23.4792C118.951 23.4792 121.875 24.5958 121.769 27.3077C121.769 27.3077 118.738 25.4998 118.951 23.4792Z" fill="white"/>
<path d="M125.226 22.4689C125.226 22.4689 125.279 25.7125 122.248 27.0418C122.301 27.0418 122.886 23.3729 125.226 22.4689Z" fill="white"/>
<path d="M119.164 27.2543C119.164 27.2543 122.301 28.7964 121.929 31.7209C121.929 31.7209 118.738 29.4344 119.164 27.2543Z" fill="white"/>
<path d="M125.651 27.4141C125.651 27.4141 125.81 30.6577 122.726 31.8806C122.726 31.9338 123.205 28.2117 125.651 27.4141Z" fill="white"/>
<path d="M119.482 32.0933C119.482 32.0933 122.354 33.9544 121.078 36.6662C121.078 36.6662 118.419 34.0607 119.482 32.0933Z" fill="white"/>
<path d="M125.438 33.4226C125.438 33.4226 124.8 36.1876 121.716 36.8256C121.716 36.8788 123.099 33.7948 125.438 33.4226Z" fill="white"/>
<path d="M122.939 32.9441C122.939 33.1036 122.833 33.2631 122.62 33.2631C122.46 33.2631 122.301 33.1568 122.301 32.9441C122.301 32.7846 122.407 32.6251 122.62 32.6251C122.726 32.6782 122.886 32.7846 122.939 32.9441Z" fill="white"/>
<path d="M122.195 33.4759C122.195 33.6354 122.088 33.7417 121.929 33.7417C121.769 33.7417 121.663 33.6354 121.61 33.4759C121.61 33.3164 121.716 33.21 121.876 33.21C122.088 33.21 122.195 33.3695 122.195 33.4759Z" fill="white"/>
<path d="M123.364 28.6901C123.364 28.8496 123.258 29.0091 123.045 29.0091C122.886 29.0091 122.726 28.9028 122.673 28.6901C122.673 28.5306 122.779 28.371 122.939 28.371C123.205 28.371 123.364 28.4774 123.364 28.6901Z" fill="white"/>
<path d="M122.673 29.1686C122.673 29.3282 122.566 29.4345 122.407 29.4345C122.247 29.4345 122.141 29.3282 122.088 29.1686C122.088 29.0091 122.194 28.9028 122.354 28.9028C122.513 28.9028 122.673 29.0623 122.673 29.1686Z" fill="white"/>
<path d="M122.992 33.9012C122.992 34.0607 122.886 34.167 122.726 34.167C122.567 34.167 122.46 34.0607 122.407 33.9012C122.407 33.7417 122.514 33.6353 122.673 33.6353C122.886 33.6353 122.992 33.7948 122.992 33.9012Z" fill="white"/>
<path d="M121.557 23.5324C121.716 23.5856 121.823 23.7983 121.769 23.9578C121.716 24.1173 121.557 24.2237 121.344 24.1705C121.184 24.1173 121.078 23.9578 121.131 23.7451C121.184 23.5856 121.344 23.4793 121.557 23.5324Z" fill="white"/>
<path d="M121.769 24.383C121.928 24.4362 121.982 24.5957 121.928 24.7552C121.875 24.9147 121.716 24.9679 121.556 24.9147C121.397 24.8615 121.344 24.702 121.397 24.5425C121.45 24.4362 121.609 24.3298 121.769 24.383Z" fill="white"/>
<path d="M122.461 23.8515C122.62 23.9047 122.673 24.0642 122.62 24.2237C122.567 24.3833 122.407 24.4364 122.248 24.3833C122.088 24.3301 122.035 24.1706 122.088 24.0111C122.141 23.8515 122.301 23.7984 122.461 23.8515Z" fill="white"/>
<path d="M122.407 28.3711C122.407 28.5307 122.301 28.637 122.141 28.637C121.982 28.637 121.875 28.5307 121.822 28.3711C121.822 28.2116 121.928 28.1053 122.088 28.1053C122.247 28.1053 122.407 28.2116 122.407 28.3711Z" fill="white"/>
<path d="M121.822 25.2338L122.247 24.968C122.247 24.968 122.035 25.3934 122.088 26.1909C122.088 26.1909 121.982 25.3934 121.822 25.2338Z" fill="white"/>
<path d="M122.301 29.9132L122.886 29.7537C122.886 29.7537 122.46 30.5513 122.407 31.1894C122.407 31.1894 122.407 30.2323 122.301 29.9132Z" fill="white"/>
<path d="M121.822 34.0074C121.822 34.0074 122.088 34.4328 122.407 34.4328C122.407 34.4328 121.928 34.9113 121.822 35.443C121.822 35.4962 122.035 34.4859 121.822 34.0074Z" fill="white"/>
<path d="M121.025 37.4106L121.344 37.3575C121.344 37.3575 120.759 40.4415 118.845 42.8343L118.207 42.143C118.26 42.1962 120.068 41.0264 121.025 37.4106Z" fill="white"/>
<path d="M75.6687 18.4277C75.6687 18.4277 73.01 19.757 73.8608 22.5752C73.914 22.5752 76.0941 20.5014 75.6687 18.4277Z" fill="white"/>
<path d="M76.5724 23.4792C76.5724 23.4792 73.6479 24.5958 73.7543 27.3077C73.7011 27.3077 76.732 25.4998 76.5724 23.4792Z" fill="white"/>
<path d="M70.2449 22.4689C70.2449 22.4689 70.1918 25.7125 73.2226 27.0418C73.2226 27.0418 72.6377 23.3729 70.2449 22.4689Z" fill="white"/>
<path d="M76.3594 27.2543C76.3594 27.2543 73.2222 28.7964 73.5944 31.7209C73.5412 31.7209 76.7316 29.4344 76.3594 27.2543Z" fill="white"/>
<path d="M69.8727 27.4141C69.8727 27.4141 69.7132 30.6577 72.7972 31.8806C72.7972 31.9338 72.2655 28.2117 69.8727 27.4141Z" fill="white"/>
<path d="M75.9875 32.0933C75.9875 32.0933 73.1162 33.9544 74.3924 36.6662C74.3924 36.6662 77.1042 34.0607 75.9875 32.0933Z" fill="white"/>
<path d="M70.0854 33.4226C70.0854 33.4226 70.7235 36.1876 73.8075 36.8256C73.7544 36.8788 72.425 33.7948 70.0854 33.4226Z" fill="white"/>
<path d="M72.5842 32.9441C72.5842 33.1036 72.6906 33.2631 72.8501 33.2631C73.0096 33.2631 73.1691 33.1568 73.1691 32.9441C73.1691 32.7846 73.0628 32.6251 72.8501 32.6251C72.7437 32.6782 72.5842 32.7846 72.5842 32.9441Z" fill="white"/>
<path d="M73.2759 33.4759C73.2759 33.6354 73.3822 33.7417 73.5417 33.7417C73.7012 33.7417 73.8076 33.6354 73.8607 33.4759C73.8607 33.3164 73.7544 33.21 73.5949 33.21C73.4354 33.21 73.329 33.3695 73.2759 33.4759Z" fill="white"/>
<path d="M72.1594 28.6901C72.1594 28.8496 72.2657 29.0091 72.4784 29.0091C72.6379 29.0091 72.7975 28.9028 72.7975 28.6901C72.7975 28.5306 72.6911 28.371 72.4784 28.371C72.3189 28.371 72.1594 28.4774 72.1594 28.6901Z" fill="white"/>
<path d="M72.8501 29.1686C72.8501 29.3282 72.9564 29.4345 73.1159 29.4345C73.2755 29.4345 73.3818 29.3282 73.435 29.1686C73.435 29.0091 73.3286 28.9028 73.1691 28.9028C72.9564 28.9028 72.8501 29.0623 72.8501 29.1686Z" fill="white"/>
<path d="M72.4783 33.9012C72.4783 34.0607 72.5846 34.167 72.7441 34.167C72.9036 34.167 73.01 34.0607 73.0631 33.9012C73.0631 33.7417 72.9568 33.6353 72.7973 33.6353C72.6378 33.6353 72.5314 33.7948 72.4783 33.9012Z" fill="white"/>
<path d="M73.9672 23.5324C73.8077 23.5856 73.7014 23.7983 73.7545 23.9578C73.8077 24.1173 73.9672 24.2237 74.1267 24.1705C74.2862 24.1173 74.3926 23.9578 74.3394 23.7451C74.3394 23.5856 74.1267 23.4793 73.9672 23.5324Z" fill="white"/>
<path d="M73.7543 24.383C73.5947 24.4362 73.5415 24.5957 73.5947 24.7552C73.6479 24.9147 73.8074 24.9679 73.9669 24.9147C74.1265 24.8615 74.1796 24.702 74.1265 24.5425C74.0201 24.4362 73.8606 24.3298 73.7543 24.383Z" fill="white"/>
<path d="M73.0632 23.8515C72.9037 23.9047 72.8505 24.0642 72.9037 24.2237C72.9569 24.3833 73.1164 24.4364 73.2759 24.3833C73.4354 24.3301 73.4886 24.1706 73.4354 24.0111C73.3823 23.8515 73.2227 23.7984 73.0632 23.8515Z" fill="white"/>
<path d="M73.116 28.3711C73.116 28.5307 73.2224 28.637 73.3819 28.637C73.5414 28.637 73.6478 28.5307 73.7009 28.3711C73.7009 28.2116 73.5946 28.1053 73.4351 28.1053C73.2224 28.1053 73.116 28.2116 73.116 28.3711Z" fill="white"/>
<path d="M73.7012 25.2338L73.2759 24.968C73.2759 24.968 73.4885 25.3934 73.4354 26.1909C73.4354 26.1909 73.5417 25.3934 73.7012 25.2338Z" fill="white"/>
<path d="M73.2228 29.9132L72.6379 29.7537C72.6379 29.7537 73.0633 30.5513 73.0633 31.1894C73.1165 31.1894 73.1165 30.2323 73.2228 29.9132Z" fill="white"/>
<path d="M73.6481 34.0074C73.6481 34.0074 73.3822 34.4328 73.0632 34.4328C73.0632 34.4328 73.5418 34.9113 73.6481 35.443C73.6481 35.4962 73.4886 34.4859 73.6481 34.0074Z" fill="white"/>
<path d="M74.4989 37.4106L74.1267 37.3575C74.1267 37.3575 74.7116 40.4415 76.6258 42.8343L77.2639 42.143C77.2639 42.1962 75.456 41.0264 74.4989 37.4106Z" fill="white"/>
<path d="M108.21 13.004C105.711 13.6953 99.6498 15.45 96.4062 16.4071L96.4594 16.6729C98.0546 16.992 98.4268 19.0657 97.0443 20.2355L97.0975 20.4482C100.182 19.4911 106.775 17.4174 108.955 16.7261C111.933 15.8222 111.401 12.1532 108.21 13.004ZM109.593 15.8222V13.5889C109.593 13.5889 110.178 13.8016 110.178 14.5992C110.178 15.45 109.593 15.8222 109.593 15.8222Z" fill="white"/>
<path d="M96.4061 16.7261L84.3358 12.1532C84.2827 12.1 84.2295 12.0469 84.2295 11.9406C84.2826 11.8874 84.3358 11.8342 84.4422 11.8342L96.5124 16.4071C96.5656 16.4602 96.6188 16.5134 96.6188 16.6197C96.5656 16.6729 96.5124 16.7261 96.4061 16.7261C96.4593 16.7261 96.4593 16.7261 96.4061 16.7261Z" fill="white"/>
<path d="M97.9485 18.0555L84.9743 13.1636C84.9211 13.1104 84.8679 13.0572 84.8679 12.9509C84.9211 12.8977 84.9743 12.8445 85.0806 12.8445L98.0548 17.7364C98.108 17.7896 98.1611 17.8428 98.1611 17.9491C98.108 18.0023 98.0548 18.0555 97.9485 18.0555Z" fill="white"/>
<path d="M98.2143 18.9062L85.2401 14.0143C85.1869 13.9611 85.1338 13.908 85.1338 13.8016C85.1869 13.7484 85.2401 13.6953 85.3465 13.6953L98.3207 18.5872C98.3738 18.6404 98.427 18.6935 98.427 18.7999C98.3738 18.9062 98.3207 18.9062 98.2143 18.9062Z" fill="white"/>
<path d="M98.0548 19.8101L85.2401 14.9713C85.1869 14.9182 85.1338 14.865 85.1338 14.7586C85.1869 14.7055 85.2401 14.6523 85.3465 14.6523L98.1611 19.491C98.2143 19.5442 98.2675 19.5974 98.2675 19.7037C98.2143 19.8101 98.1611 19.8101 98.0548 19.8101Z" fill="white"/>
<path d="M97.0445 20.4483L84.9743 15.8754C84.9211 15.8222 84.8679 15.769 84.8679 15.6627C84.9211 15.6095 84.9743 15.5563 85.0806 15.5563L97.1509 20.1292C97.204 20.1824 97.2572 20.2356 97.2572 20.3419C97.204 20.3951 97.1509 20.4483 97.0445 20.4483Z" fill="white"/>
<path d="M110.656 5.24089C107.519 6.09166 100.022 8.27175 95.981 9.49473L96.0342 9.86694C98.0016 10.2923 98.4802 12.8446 96.7786 14.2802L96.8318 14.5461C100.66 13.3763 108.849 10.7709 111.56 9.92011C115.283 8.75031 114.644 4.17743 110.656 5.24089ZM112.411 8.75031V5.93214C112.411 5.93214 113.156 6.25118 113.156 7.26146C113.102 8.32492 112.411 8.75031 112.411 8.75031Z" fill="white"/>
<path d="M96.0339 9.86691L81.4114 4.28375C81.305 4.23058 81.2519 4.12423 81.3051 4.07106C81.3583 3.96471 81.4646 3.91154 81.5178 3.96471L96.1403 9.54787C96.2466 9.60105 96.2998 9.70739 96.2466 9.76056C96.1935 9.81374 96.1403 9.86691 96.0871 9.86691C96.0871 9.86691 96.0871 9.86691 96.0339 9.86691Z" fill="white"/>
<path d="M97.9485 11.4622L82.0498 5.40045C81.9435 5.34727 81.8903 5.24093 81.9434 5.18775C81.9966 5.08141 82.103 5.02824 82.1562 5.08141L98.0548 11.1963C98.1612 11.2495 98.2144 11.3558 98.1612 11.409C98.108 11.4622 98.0549 11.5153 98.0017 11.5153C97.9485 11.5153 97.9485 11.5153 97.9485 11.4622Z" fill="white"/>
<path d="M98.2674 12.5788L82.3686 6.51714C82.2623 6.46396 82.2091 6.35762 82.2623 6.30444C82.3155 6.1981 82.4218 6.14493 82.475 6.1981L98.3737 12.2598C98.48 12.313 98.5332 12.4193 98.4801 12.4725C98.4269 12.5256 98.3737 12.5788 98.3205 12.5788H98.2674Z" fill="white"/>
<path d="M98.0546 13.6953L82.3686 7.68683C82.2623 7.63365 82.2091 7.52731 82.2623 7.47413C82.3155 7.36779 82.4218 7.31461 82.475 7.36779L98.161 13.3763C98.2673 13.4295 98.3205 13.5358 98.2674 13.589C98.2142 13.6421 98.161 13.6953 98.1078 13.6953H98.0546Z" fill="white"/>
<path d="M96.8315 14.4929L82.1558 8.8565C82.0494 8.80333 81.9962 8.69698 82.0494 8.64381C82.1026 8.53746 82.2089 8.48429 82.2621 8.53746L96.9378 14.1207C97.0442 14.1738 97.0974 14.2802 97.0442 14.3334C96.991 14.3865 96.9378 14.4397 96.8847 14.4397C96.8315 14.4929 96.8315 14.4929 96.8315 14.4929Z" fill="white"/>
<path d="M98.5332 46.9284V26.9353C98.5332 26.7227 98.7459 26.51 98.9586 26.51C99.1713 26.51 99.3839 26.7227 99.3839 26.9353V46.9284C99.3839 47.1411 99.1713 47.3538 98.9586 47.3538C98.6927 47.3538 98.5332 47.1943 98.5332 46.9284Z" fill="white"/>
<path d="M95.8745 47.0347V28.2115C95.8745 27.5203 96.0872 26.829 96.8848 26.6163C97.0443 26.5632 97.2038 26.6695 97.257 26.829C97.3101 26.9885 97.2038 27.1481 97.0443 27.2012C96.6189 27.3076 96.5126 27.5734 96.5126 28.2115V47.0347C96.5126 47.1943 96.353 47.3538 96.1935 47.3538C95.9808 47.3538 95.8745 47.2474 95.8745 47.0347Z" fill="white"/>
<path d="M100.607 46.5031V26.5101C100.607 26.2974 100.819 26.0847 101.032 26.0847C101.245 26.0847 101.457 26.2974 101.457 26.5101V46.5031C101.457 46.7158 101.245 46.9285 101.032 46.9285C100.766 46.9285 100.607 46.7158 100.607 46.5031Z" fill="white"/>
<path d="M92.7371 46.8754V27.7331C92.7371 26.9887 93.2157 26.4038 93.8538 26.4038C93.9601 26.4038 94.0665 26.5101 94.0665 26.6165C94.0665 26.7228 93.9601 26.8291 93.8538 26.8291C93.4816 26.8291 93.1625 27.1482 93.1625 27.7331V46.8754C93.1625 46.9817 93.0562 47.088 92.9498 47.088C92.8435 47.088 92.7371 47.0349 92.7371 46.8754Z" fill="white"/>
<path d="M90.2383 46.0246V27.1482C90.2383 26.2442 90.77 25.8189 91.1422 25.7657C91.2485 25.7657 91.3549 25.872 91.408 25.9784C91.408 26.0847 91.3017 26.1911 91.1954 26.1911C91.089 26.1911 90.7168 26.3506 90.6636 27.095V45.9714C90.6636 46.0778 90.5573 46.1841 90.4509 46.1841C90.3446 46.2373 90.2383 46.1309 90.2383 46.0246Z" fill="white"/>
<path d="M102.415 45.7587V25.9252C102.415 25.7125 102.627 25.4998 102.84 25.4998C103.053 25.4998 103.265 25.7125 103.265 25.9252V45.7587C103.265 45.9714 103.053 46.1841 102.84 46.1841C102.627 46.1841 102.415 45.9714 102.415 45.7587Z" fill="white"/>
<path d="M103.744 44.9078V25.3934C103.744 25.1807 103.957 24.968 104.169 24.968C104.382 24.968 104.595 25.1807 104.595 25.3934V44.9078C104.595 45.1205 104.382 45.3332 104.169 45.3332C103.957 45.3332 103.744 45.1737 103.744 44.9078Z" fill="white"/>
<path d="M104.914 43.6318V24.4895C104.914 24.2769 105.126 24.0642 105.339 24.0642C105.552 24.0642 105.764 24.2769 105.764 24.4895V43.6318C105.764 43.8445 105.552 44.0572 105.339 44.0572C105.126 44.0572 104.914 43.8445 104.914 43.6318Z" fill="white"/>
<path d="M106.083 21.7243C105.339 22.4687 104.169 23.16 102.627 23.6385C101.032 24.1171 99.118 24.4361 97.0442 24.4361C93.588 24.4361 90.5571 23.5854 88.8024 22.4156C88.6429 22.3092 88.4834 22.3624 88.377 22.4687C88.2707 22.5751 88.3239 22.7878 88.4302 22.8941C90.3444 24.2234 93.4816 25.021 97.0442 25.021C99.9156 25.021 102.468 24.4893 104.382 23.5854C105.339 23.16 106.083 22.6283 106.668 21.9902C106.828 21.8307 106.934 21.618 107.094 21.4584C106.721 21.5116 106.402 21.618 106.083 21.7243Z" fill="white"/>
<path d="M84.6673 62.0449C84.6673 62.8699 84.4363 63.1119 83.5013 63.1119V63.3539H87.0873V63.1119C86.1633 63.1119 85.9213 62.8699 85.9213 62.0449V60.0319C85.9213 59.8119 86.0093 59.7459 86.2293 59.7459H86.9553C87.8903 61.0219 88.8693 62.2319 89.9143 63.3539H91.7073V63.1119C91.1903 63.0679 90.1123 61.8359 88.2973 59.5039C89.5953 59.2069 90.2553 58.5029 90.2553 57.4799C90.2553 56.1709 89.3093 55.4339 87.5163 55.4339H83.5013V55.6759C84.4033 55.6759 84.6673 55.9289 84.6673 56.7429V62.0449ZM85.9213 59.0419V56.4899C85.9213 55.9179 86.0643 55.8959 86.7133 55.8959C88.2203 55.8959 88.9463 56.3469 88.9463 57.5239C88.9463 58.8439 88.0553 59.3389 86.2293 59.3389C85.9983 59.3389 85.9213 59.2399 85.9213 59.0419ZM92.5573 63.5299H92.7663C92.7993 63.3429 92.9313 63.2219 93.1403 63.2219C93.4153 63.2219 93.9653 63.5299 94.8893 63.5299C96.4623 63.5299 97.4303 62.6279 97.4303 61.2969C97.4303 60.2959 96.9463 59.7349 95.9123 59.1189L94.5373 58.3049C93.7893 57.8539 93.4043 57.4469 93.4043 56.8529C93.4043 56.1709 93.9433 55.6649 94.7353 55.6649C95.6483 55.6649 96.3963 56.3359 96.8473 57.6559H97.0893L96.8253 55.2689H96.6163C96.5943 55.4889 96.4953 55.6209 96.3193 55.6209C95.9893 55.6209 95.5053 55.2689 94.6693 55.2689C93.2503 55.2689 92.3373 56.1489 92.3373 57.3149C92.3373 58.2169 92.8103 58.7889 93.8443 59.4159L95.0763 60.1639C95.8683 60.6479 96.2423 61.1099 96.2423 61.7149C96.2423 62.5179 95.6043 63.1229 94.7573 63.1229C93.8443 63.1229 92.9423 62.3749 92.3703 60.9559H92.1283L92.5573 63.5299ZM99.293 62.0449C99.293 62.8699 99.062 63.1119 98.127 63.1119V63.3539H101.713V63.1119C100.789 63.1119 100.547 62.8699 100.547 62.0449V59.9549C100.547 59.7459 100.58 59.7349 100.756 59.7349H101.427C103.242 59.7349 104.441 59.1629 104.441 57.4799C104.441 56.1599 103.495 55.4339 101.636 55.4339H98.127V55.6759C99.029 55.6759 99.293 55.9289 99.293 56.7429V62.0449ZM100.547 58.9429V56.5339C100.547 56.0279 100.635 55.8959 101.229 55.8959C102.483 55.8959 103.132 56.4349 103.132 57.5569C103.132 58.7009 102.406 59.3279 100.998 59.3279C100.657 59.3279 100.547 59.2399 100.547 58.9429ZM106.208 62.0449C106.208 62.8809 105.944 63.1119 105.042 63.1119V63.3539H111.576L112.236 61.2749H111.994C111.521 62.3859 110.784 62.8919 109.607 62.8919H108.254C107.528 62.8919 107.462 62.7269 107.462 62.0779V56.7429C107.462 55.9069 107.715 55.6759 108.628 55.6759V55.4339H105.042V55.6759C105.944 55.6759 106.208 55.9289 106.208 56.7429V62.0449Z" fill="white"/>
</g>
<defs>
<linearGradient id="paint0_linear_106_7762" x1="2.41076" y1="2.01467" x2="37.2002" y2="36.8041" gradientUnits="userSpaceOnUse">
<stop offset="0.0872932" stop-color="#C2B59B"/>
<stop offset="1" stop-color="#5C4E30"/>
</linearGradient>
<clipPath id="clip0_106_7762">
<rect width="124.913" height="67.0431" fill="white" transform="translate(0.739502 0.172302)"/>
</clipPath>
</defs>
</svg>
