<svg width="126" height="68" viewBox="0 0 126 68" fill="none" xmlns="http://www.w3.org/2000/svg">
<g clip-path="url(#clip0_106_7757)">
<path d="M37.1248 3.22696C37.1248 3.22696 35.5432 3.05124 32.7844 2.7818C30.0724 2.51821 28.2097 1.26472 25.5915 0.778547C23.5121 0.391956 20.9992 0.227948 20.1675 0.181088C19.98 0.169374 19.7926 0.169374 19.6052 0.181088C18.7734 0.227948 16.2606 0.391956 14.1812 0.778547C11.5687 1.26472 9.70019 2.51821 6.9882 2.7818C4.22934 3.04538 2.64783 3.22696 2.64783 3.22696C2.64783 3.22696 0.826172 3.4554 0.826172 3.71313C0.826172 3.97086 0.826172 24.0736 0.826172 24.0736C0.826172 24.0736 0.843744 27.6701 1.57592 30.3704C2.3081 33.0706 3.4093 36.919 6.57232 40.6912C9.73534 44.4633 12.6524 46.3904 12.6524 46.3904C12.6524 46.3904 17.8128 49.6179 19.8922 50.2154C19.8922 48.9501 19.8922 6.07953 19.8922 0.72583C19.8922 6.07953 19.8922 48.9501 19.8922 50.2154C21.9657 49.6179 27.132 46.3904 27.132 46.3904C27.132 46.3904 30.049 44.4575 33.212 40.6912C36.375 36.9248 37.4762 33.0706 38.2084 30.3704C38.9406 27.6701 38.9581 24.0736 38.9581 24.0736C38.9581 24.0736 38.9581 3.97086 38.9581 3.71899C38.9581 3.4554 37.1248 3.22696 37.1248 3.22696Z" fill="url(#paint0_linear_106_7757)"/>
<path d="M3.83105 23.3357C3.83105 24.144 3.83105 24.6243 3.83105 24.6243C3.83105 24.6243 3.84277 27.6526 4.46366 29.9253C5.07869 32.198 6.01002 35.443 8.67515 38.6177C11.3403 41.7924 13.7946 43.4208 13.7946 43.4208C13.7946 43.4208 18.0002 46.0508 19.8043 46.6131V23.3357H3.83105Z" fill="#741C2F"/>
<path d="M19.8043 23.1601V3.30341C19.7575 3.30341 19.7047 3.30927 19.6579 3.30927C18.9608 3.35027 16.8405 3.49085 15.0891 3.81301C12.8867 4.22303 11.3169 5.27737 9.03246 5.49995C6.71291 5.72253 5.37742 5.87483 5.37742 5.87483C5.37742 5.87483 3.83105 6.06812 3.83105 6.28485C3.83105 6.46057 3.83105 18.8432 3.83105 23.166H19.8043V23.1601Z" fill="#616086"/>
<path d="M35.9474 23.3357C35.9474 24.144 35.9474 24.6243 35.9474 24.6243C35.9474 24.6243 35.9357 27.6526 35.3148 29.9253C34.6998 32.198 33.7684 35.443 31.1033 38.6177C28.4382 41.7924 25.9839 43.4208 25.9839 43.4208C25.9839 43.4208 21.7782 46.0508 19.9741 46.6131V23.3357H35.9474Z" fill="#616086"/>
<path d="M19.98 23.1601V3.30341C20.0269 3.30341 20.0796 3.30927 20.1264 3.30927C20.8235 3.35027 22.9439 3.49085 24.6952 3.81301C26.8976 4.22303 28.4674 5.27737 30.7518 5.49995C33.0714 5.72253 34.4069 5.87483 34.4069 5.87483C34.4069 5.87483 35.9532 6.06812 35.9532 6.28485C35.9532 6.46057 35.9532 18.8432 35.9532 23.166H19.98V23.1601Z" fill="#741C2F"/>
<path d="M8.42949 17.2675C8.54663 16.1956 8.76922 15.2994 9.05037 14.5497C11.0888 13.5715 12.4887 13.3431 12.969 13.3079C13.1565 13.2962 13.3439 13.3548 13.4903 13.4719L16.3781 15.7212C16.3781 15.7212 14.1171 13.6828 13.4201 13.0619C11.3875 13.0443 9.56583 14.1807 9.06795 14.5204C10.4386 10.9064 13.2385 10.7306 13.2385 10.7306C13.2385 10.7306 12.1197 10.3206 10.9306 9.90472C9.67126 10.5081 9.11481 11.1524 8.49392 12.3414C8.23033 12.8452 8.17762 13.8175 8.2069 14.7664C6.9417 13.8117 4.86816 13.2142 4.86816 13.2142C4.86816 13.2142 4.86816 13.2142 4.86816 13.5012C5.86393 13.6008 7.99603 14.7664 8.21276 14.8836C8.25962 16.1078 8.42949 17.2675 8.42949 17.2675Z" fill="white"/>
<path d="M16.9457 17.1211C16.9457 17.1211 16.319 16.963 14.3509 16.8107C11.9962 16.7697 8.79217 17.7772 8.79217 17.7772C8.79217 17.7772 10.8071 16.676 13.2321 16.4592C13.279 16.4534 13.361 16.4475 13.4137 16.4358C14.6086 16.2718 16.7583 16.594 16.7583 16.594L16.6177 16.1136C16.0378 15.8794 14.9659 15.8676 14.345 15.8383C11.5628 15.8091 9.24905 17.086 8.32943 17.578C7.10523 16.8458 4.86768 16.2191 4.86768 16.2191V17.2617L7.62068 18.3278L4.86768 17.5604V18.0349L7.55039 18.7554L4.86768 18.2926V19.7921H7.43324C7.43324 19.7921 7.69097 20.4423 8.35872 20.4423C9.02647 20.4423 9.23733 19.8097 9.23733 19.8097H17.8771L16.9457 17.1211Z" fill="white"/>
<path d="M28.0047 13.8762H26.9504V19.9621H28.0047V13.8762Z" fill="white"/>
<path d="M30.3652 13.8762H29.3108V19.9621H30.3652V13.8762Z" fill="white"/>
<path d="M32.7258 13.8762H31.6714V19.9621H32.7258V13.8762Z" fill="white"/>
<path d="M35.0863 13.8762H34.032V19.9621H35.0863V13.8762Z" fill="white"/>
<path d="M26.5986 12.5816H35.0918V10.7131L33.1589 10.0043L26.5986 12.5816Z" fill="white"/>
<path d="M24.666 11.9432L33.1593 8.66302L35.0923 9.42449V10.0044L33.1593 9.30735L24.9003 12.529L24.666 11.9432Z" fill="white"/>
<path d="M16.4596 33.3521C16.3249 32.1045 15.54 31.8995 15.54 31.8995C15.54 31.8995 12.9335 30.5464 12.8866 30.4937C12.8397 30.441 12.8046 30.2828 12.8163 30.1422C12.828 30.0017 13.1853 29.1582 13.1853 29.1582L13.2732 29.1523C13.3142 29.1465 13.3493 29.1172 13.3611 29.082C13.4196 28.877 13.5836 28.262 13.6129 28.0863C13.6539 27.8754 13.4138 27.9047 13.4138 27.9047C13.4138 27.9047 13.9175 25.5149 11.6741 25.5207C9.43068 25.5266 9.90514 27.6938 9.90514 27.6938L9.89342 27.893C9.89342 27.893 9.82899 27.8578 9.70598 27.934C9.58298 28.0101 9.83485 29.1465 9.952 29.1523C10.0633 29.1582 10.075 29.2578 10.075 29.2578L10.4382 30.154C10.5026 30.3121 10.4382 30.4937 10.28 30.5757C9.85242 30.7924 8.91523 31.2786 7.37472 32.0693C7.13457 32.1923 7.03499 32.4852 7.15214 32.7254C10.7545 40.2522 16.8755 43.2219 16.8755 43.2219C16.8755 43.2219 16.5944 34.5998 16.4596 33.3521ZM11.8381 36.89L10.0809 31.2142L10.7486 32.3856L11.68 31.1614L12.5996 32.2744L13.238 31.2727L11.8381 36.89Z" fill="white"/>
<path d="M27.8406 33.9143C27.6473 33.2641 27.4833 32.1863 27.3837 31.7412C27.3837 31.7412 27.0733 32.0633 25.5269 34.7285C23.9805 37.3936 24.2558 38.7057 24.2558 38.7057C24.2558 38.7057 27.3837 34.541 27.8406 33.9143Z" fill="white"/>
<path d="M32.3568 25.6204C31.4313 26.1651 30.9276 26.7509 30.9276 26.7509C30.9276 26.7509 31.2615 28.5198 31.0682 29.2168L30.9862 28.0629C30.9862 28.0629 30.7519 27.2077 30.664 27.1667C30.5761 27.1257 29.8791 28.0688 29.8791 28.0688L29.6858 30.9799L29.5745 30.3825C29.5745 30.3825 29.3812 28.2855 29.3109 28.0746C29.2406 27.8638 29.1938 28.3968 28.9712 28.9064C28.7486 29.416 27.8583 31.1088 27.8407 31.3607C27.8231 31.6184 28.0164 33.5279 28.0164 33.5279L30.3184 30.7749L22.979 40.961C22.979 40.961 22.6686 41.5292 22.692 41.74C22.7155 41.9451 22.282 42.6831 22.282 42.6831L24.9764 39.1862C24.9764 39.1862 26.0542 39.3268 27.8466 36.9897C29.639 34.6525 32.884 30.4586 33.4111 27.6178C33.6689 26.0831 33.2823 25.0756 32.3568 25.6204Z" fill="white"/>
<path d="M5.83309 61.9064C5.83309 62.7314 5.60209 62.9734 4.66709 62.9734V63.2154H8.25309V62.9734C7.32909 62.9734 7.08709 62.7314 7.08709 61.9064V59.8164C7.08709 59.6074 7.12009 59.5964 7.29609 59.5964H7.96709C9.78209 59.5964 10.9811 59.0244 10.9811 57.3414C10.9811 56.0214 10.0351 55.2954 8.17609 55.2954H4.66709V55.5374C5.56909 55.5374 5.83309 55.7904 5.83309 56.6044V61.9064ZM7.08709 58.8044V56.3954C7.08709 55.8894 7.17509 55.7574 7.76909 55.7574C9.02309 55.7574 9.67209 56.2964 9.67209 57.4184C9.67209 58.5624 8.94609 59.1894 7.53809 59.1894C7.19709 59.1894 7.08709 59.1014 7.08709 58.8044ZM12.6385 61.9064C12.6385 62.7424 12.3745 62.9734 11.4725 62.9734V63.2154H18.0065L18.6665 61.1364H18.4245C17.9515 62.2474 17.2145 62.7534 16.0375 62.7534H14.6845C13.9585 62.7534 13.8925 62.5884 13.8925 61.9394V56.6044C13.8925 55.7684 14.1455 55.5374 15.0585 55.5374V55.2954H11.4725V55.5374C12.3745 55.5374 12.6385 55.7904 12.6385 56.6044V61.9064ZM19.9488 61.9064C19.9488 62.7314 19.7178 62.9734 18.7828 62.9734V63.2154H22.3688V62.9734C21.4448 62.9734 21.2028 62.7314 21.2028 61.9064V59.8934C21.2028 59.6734 21.2908 59.6074 21.5108 59.6074H22.2368C23.1718 60.8834 24.1508 62.0934 25.1958 63.2154H26.9888V62.9734C26.4718 62.9294 25.3938 61.6974 23.5788 59.3654C24.8768 59.0684 25.5368 58.3644 25.5368 57.3414C25.5368 56.0324 24.5908 55.2954 22.7978 55.2954H18.7828V55.5374C19.6848 55.5374 19.9488 55.7904 19.9488 56.6044V61.9064ZM21.2028 58.9034V56.3514C21.2028 55.7794 21.3458 55.7574 21.9948 55.7574C23.5018 55.7574 24.2278 56.2084 24.2278 57.3854C24.2278 58.7054 23.3368 59.2004 21.5108 59.2004C21.2798 59.2004 21.2028 59.1014 21.2028 58.9034ZM34.6808 61.3784C33.8118 62.4344 32.8768 62.9294 31.6668 62.9294C29.7748 62.9294 28.7738 61.5214 28.7738 59.2774C28.7738 57.0334 29.7528 55.5924 31.6558 55.5924C33.0088 55.5924 33.7678 56.1754 34.3288 57.6164H34.5708L34.4388 55.1854H34.2518C34.1858 55.4714 34.0428 55.5924 33.8558 55.5924C33.4928 55.5924 32.8218 55.1304 31.5348 55.1304C28.9608 55.1304 27.4208 56.7914 27.4208 59.2774C27.4208 61.6204 28.8948 63.3914 31.5128 63.3914C32.9208 63.3914 34.0098 62.7974 34.8788 61.5874L34.6808 61.3784Z" fill="#74613E"/>
<path d="M54.958 12.6938H53.958V54.6938H54.958V12.6938Z" fill="#F2F2F2"/>
<path d="M119.888 18.4277C119.888 18.4277 122.547 19.757 121.696 22.5752C121.696 22.5752 119.516 20.5014 119.888 18.4277Z" fill="#B1A290"/>
<path d="M119.038 23.4792C119.038 23.4792 121.962 24.5958 121.856 27.3077C121.856 27.3077 118.825 25.4998 119.038 23.4792Z" fill="#B1A290"/>
<path d="M125.313 22.4689C125.313 22.4689 125.366 25.7125 122.335 27.0418C122.388 27.0418 122.973 23.3729 125.313 22.4689Z" fill="#B1A290"/>
<path d="M119.251 27.2543C119.251 27.2543 122.388 28.7964 122.016 31.7209C122.016 31.7209 118.825 29.4344 119.251 27.2543Z" fill="#B1A290"/>
<path d="M125.738 27.4141C125.738 27.4141 125.897 30.6577 122.813 31.8806C122.813 31.9338 123.292 28.2117 125.738 27.4141Z" fill="#B1A290"/>
<path d="M119.569 32.0933C119.569 32.0933 122.441 33.9544 121.165 36.6662C121.165 36.6662 118.506 34.0607 119.569 32.0933Z" fill="#B1A290"/>
<path d="M125.525 33.4226C125.525 33.4226 124.887 36.1876 121.803 36.8256C121.803 36.8788 123.186 33.7948 125.525 33.4226Z" fill="#B1A290"/>
<path d="M123.026 32.9441C123.026 33.1036 122.92 33.2631 122.707 33.2631C122.547 33.2631 122.388 33.1568 122.388 32.9441C122.388 32.7846 122.494 32.6251 122.707 32.6251C122.813 32.6782 122.973 32.7846 123.026 32.9441Z" fill="#B1A290"/>
<path d="M122.282 33.4759C122.282 33.6354 122.175 33.7417 122.016 33.7417C121.856 33.7417 121.75 33.6354 121.697 33.4759C121.697 33.3164 121.803 33.21 121.963 33.21C122.175 33.21 122.282 33.3695 122.282 33.4759Z" fill="#B1A290"/>
<path d="M123.451 28.6901C123.451 28.8496 123.345 29.0091 123.132 29.0091C122.973 29.0091 122.813 28.9028 122.76 28.6901C122.76 28.5306 122.866 28.371 123.026 28.371C123.292 28.371 123.451 28.4774 123.451 28.6901Z" fill="#B1A290"/>
<path d="M122.76 29.1686C122.76 29.3282 122.653 29.4345 122.494 29.4345C122.334 29.4345 122.228 29.3282 122.175 29.1686C122.175 29.0091 122.281 28.9028 122.441 28.9028C122.6 28.9028 122.76 29.0623 122.76 29.1686Z" fill="#B1A290"/>
<path d="M123.079 33.9012C123.079 34.0607 122.973 34.167 122.813 34.167C122.654 34.167 122.547 34.0607 122.494 33.9012C122.494 33.7417 122.601 33.6353 122.76 33.6353C122.973 33.6353 123.079 33.7948 123.079 33.9012Z" fill="#B1A290"/>
<path d="M121.644 23.5324C121.803 23.5856 121.91 23.7983 121.856 23.9578C121.803 24.1173 121.644 24.2237 121.431 24.1705C121.271 24.1173 121.165 23.9578 121.218 23.7451C121.271 23.5856 121.431 23.4793 121.644 23.5324Z" fill="#B1A290"/>
<path d="M121.856 24.383C122.015 24.4362 122.069 24.5957 122.015 24.7552C121.962 24.9147 121.803 24.9679 121.643 24.9147C121.484 24.8615 121.431 24.702 121.484 24.5425C121.537 24.4362 121.696 24.3298 121.856 24.383Z" fill="#B1A290"/>
<path d="M122.548 23.8515C122.707 23.9047 122.76 24.0642 122.707 24.2237C122.654 24.3833 122.494 24.4364 122.335 24.3833C122.175 24.3301 122.122 24.1706 122.175 24.0111C122.228 23.8515 122.388 23.7984 122.548 23.8515Z" fill="#B1A290"/>
<path d="M122.494 28.3711C122.494 28.5307 122.388 28.637 122.228 28.637C122.069 28.637 121.962 28.5307 121.909 28.3711C121.909 28.2116 122.015 28.1053 122.175 28.1053C122.334 28.1053 122.494 28.2116 122.494 28.3711Z" fill="#B1A290"/>
<path d="M121.909 25.2338L122.334 24.968C122.334 24.968 122.122 25.3934 122.175 26.1909C122.175 26.1909 122.069 25.3934 121.909 25.2338Z" fill="#B1A290"/>
<path d="M122.388 29.9132L122.973 29.7537C122.973 29.7537 122.547 30.5513 122.494 31.1894C122.494 31.1894 122.494 30.2323 122.388 29.9132Z" fill="#B1A290"/>
<path d="M121.909 34.0074C121.909 34.0074 122.175 34.4328 122.494 34.4328C122.494 34.4328 122.015 34.9113 121.909 35.443C121.909 35.4962 122.122 34.4859 121.909 34.0074Z" fill="#B1A290"/>
<path d="M121.112 37.4106L121.431 37.3575C121.431 37.3575 120.846 40.4415 118.932 42.8343L118.294 42.143C118.347 42.1962 120.155 41.0264 121.112 37.4106Z" fill="#B1A290"/>
<path d="M75.7554 18.4277C75.7554 18.4277 73.0967 19.757 73.9475 22.5752C74.0007 22.5752 76.1808 20.5014 75.7554 18.4277Z" fill="#B1A290"/>
<path d="M76.6591 23.4792C76.6591 23.4792 73.7346 24.5958 73.841 27.3077C73.7878 27.3077 76.8187 25.4998 76.6591 23.4792Z" fill="#B1A290"/>
<path d="M70.3316 22.4689C70.3316 22.4689 70.2785 25.7125 73.3093 27.0418C73.3093 27.0418 72.7244 23.3729 70.3316 22.4689Z" fill="#B1A290"/>
<path d="M76.4461 27.2543C76.4461 27.2543 73.3089 28.7964 73.6811 31.7209C73.6279 31.7209 76.8183 29.4344 76.4461 27.2543Z" fill="#B1A290"/>
<path d="M69.9594 27.4141C69.9594 27.4141 69.7999 30.6577 72.8839 31.8806C72.8839 31.9338 72.3522 28.2117 69.9594 27.4141Z" fill="#B1A290"/>
<path d="M76.0742 32.0933C76.0742 32.0933 73.2029 33.9544 74.4791 36.6662C74.4791 36.6662 77.1909 34.0607 76.0742 32.0933Z" fill="#B1A290"/>
<path d="M70.1721 33.4226C70.1721 33.4226 70.8102 36.1876 73.8942 36.8256C73.8411 36.8788 72.5117 33.7948 70.1721 33.4226Z" fill="#B1A290"/>
<path d="M72.6709 32.9441C72.6709 33.1036 72.7773 33.2631 72.9368 33.2631C73.0963 33.2631 73.2558 33.1568 73.2558 32.9441C73.2558 32.7846 73.1495 32.6251 72.9368 32.6251C72.8304 32.6782 72.6709 32.7846 72.6709 32.9441Z" fill="#B1A290"/>
<path d="M73.3625 33.4759C73.3625 33.6354 73.4688 33.7417 73.6283 33.7417C73.7878 33.7417 73.8942 33.6354 73.9473 33.4759C73.9473 33.3164 73.841 33.21 73.6815 33.21C73.522 33.21 73.4156 33.3695 73.3625 33.4759Z" fill="#B1A290"/>
<path d="M72.2461 28.6901C72.2461 28.8496 72.3524 29.0091 72.5651 29.0091C72.7246 29.0091 72.8842 28.9028 72.8842 28.6901C72.8842 28.5306 72.7778 28.371 72.5651 28.371C72.4056 28.371 72.2461 28.4774 72.2461 28.6901Z" fill="#B1A290"/>
<path d="M72.9368 29.1686C72.9368 29.3282 73.0431 29.4345 73.2026 29.4345C73.3622 29.4345 73.4685 29.3282 73.5217 29.1686C73.5217 29.0091 73.4153 28.9028 73.2558 28.9028C73.0431 28.9028 72.9368 29.0623 72.9368 29.1686Z" fill="#B1A290"/>
<path d="M72.5649 33.9012C72.5649 34.0607 72.6712 34.167 72.8307 34.167C72.9902 34.167 73.0966 34.0607 73.1497 33.9012C73.1497 33.7417 73.0434 33.6353 72.8839 33.6353C72.7244 33.6353 72.618 33.7948 72.5649 33.9012Z" fill="#B1A290"/>
<path d="M74.0539 23.5324C73.8944 23.5856 73.7881 23.7983 73.8412 23.9578C73.8944 24.1173 74.0539 24.2237 74.2134 24.1705C74.3729 24.1173 74.4793 23.9578 74.4261 23.7451C74.4261 23.5856 74.2134 23.4793 74.0539 23.5324Z" fill="#B1A290"/>
<path d="M73.8409 24.383C73.6813 24.4362 73.6281 24.5957 73.6813 24.7552C73.7345 24.9147 73.894 24.9679 74.0535 24.9147C74.2131 24.8615 74.2662 24.702 74.2131 24.5425C74.1067 24.4362 73.9472 24.3298 73.8409 24.383Z" fill="#B1A290"/>
<path d="M73.1499 23.8515C72.9904 23.9047 72.9372 24.0642 72.9904 24.2237C73.0436 24.3833 73.2031 24.4364 73.3626 24.3833C73.5221 24.3301 73.5753 24.1706 73.5221 24.0111C73.469 23.8515 73.3094 23.7984 73.1499 23.8515Z" fill="#B1A290"/>
<path d="M73.2026 28.3711C73.2026 28.5307 73.309 28.637 73.4685 28.637C73.628 28.637 73.7344 28.5307 73.7875 28.3711C73.7875 28.2116 73.6812 28.1053 73.5217 28.1053C73.309 28.1053 73.2026 28.2116 73.2026 28.3711Z" fill="#B1A290"/>
<path d="M73.7878 25.2338L73.3625 24.968C73.3625 24.968 73.5751 25.3934 73.522 26.1909C73.522 26.1909 73.6283 25.3934 73.7878 25.2338Z" fill="#B1A290"/>
<path d="M73.3095 29.9132L72.7246 29.7537C72.7246 29.7537 73.15 30.5513 73.15 31.1894C73.2032 31.1894 73.2032 30.2323 73.3095 29.9132Z" fill="#B1A290"/>
<path d="M73.7348 34.0074C73.7348 34.0074 73.4689 34.4328 73.1499 34.4328C73.1499 34.4328 73.6285 34.9113 73.7348 35.443C73.7348 35.4962 73.5753 34.4859 73.7348 34.0074Z" fill="#B1A290"/>
<path d="M74.5856 37.4106L74.2134 37.3575C74.2134 37.3575 74.7983 40.4415 76.7125 42.8343L77.3506 42.143C77.3506 42.1962 75.5427 41.0264 74.5856 37.4106Z" fill="#B1A290"/>
<path d="M108.297 13.004C105.798 13.6953 99.7365 15.45 96.4929 16.4071L96.5461 16.6729C98.1413 16.992 98.5135 19.0657 97.131 20.2355L97.1842 20.4482C100.268 19.4911 106.862 17.4174 109.042 16.7261C112.02 15.8222 111.488 12.1532 108.297 13.004ZM109.68 15.8222V13.5889C109.68 13.5889 110.265 13.8016 110.265 14.5992C110.265 15.45 109.68 15.8222 109.68 15.8222Z" fill="#6D857D"/>
<path d="M96.4928 16.7261L84.4225 12.1532C84.3694 12.1 84.3162 12.0469 84.3162 11.9406C84.3693 11.8874 84.4225 11.8342 84.5289 11.8342L96.5991 16.4071C96.6523 16.4602 96.7055 16.5134 96.7055 16.6197C96.6523 16.6729 96.5991 16.7261 96.4928 16.7261C96.546 16.7261 96.546 16.7261 96.4928 16.7261Z" fill="#6D857D"/>
<path d="M98.0352 18.0555L85.061 13.1636C85.0078 13.1104 84.9546 13.0572 84.9546 12.9509C85.0078 12.8977 85.061 12.8445 85.1673 12.8445L98.1415 17.7364C98.1947 17.7896 98.2478 17.8428 98.2478 17.9491C98.1947 18.0023 98.1415 18.0555 98.0352 18.0555Z" fill="#6D857D"/>
<path d="M98.301 18.9062L85.3268 14.0143C85.2736 13.9611 85.2205 13.908 85.2205 13.8016C85.2736 13.7484 85.3268 13.6953 85.4332 13.6953L98.4074 18.5872C98.4605 18.6404 98.5137 18.6935 98.5137 18.7999C98.4605 18.9062 98.4074 18.9062 98.301 18.9062Z" fill="#6D857D"/>
<path d="M98.1415 19.8101L85.3268 14.9713C85.2736 14.9182 85.2205 14.865 85.2205 14.7586C85.2736 14.7055 85.3268 14.6523 85.4332 14.6523L98.2478 19.491C98.301 19.5442 98.3542 19.5974 98.3542 19.7037C98.301 19.8101 98.2478 19.8101 98.1415 19.8101Z" fill="#6D857D"/>
<path d="M97.1312 20.4483L85.061 15.8754C85.0078 15.8222 84.9546 15.769 84.9546 15.6627C85.0078 15.6095 85.061 15.5563 85.1673 15.5563L97.2376 20.1292C97.2907 20.1824 97.3439 20.2356 97.3439 20.3419C97.2907 20.3951 97.2376 20.4483 97.1312 20.4483Z" fill="#6D857D"/>
<path d="M110.743 5.24089C107.606 6.09166 100.109 8.27175 96.0676 9.49473L96.1208 9.86694C98.0882 10.2923 98.5668 12.8446 96.8652 14.2802L96.9184 14.5461C100.747 13.3763 108.936 10.7709 111.647 9.92011C115.37 8.75031 114.731 4.17743 110.743 5.24089ZM112.498 8.75031V5.93214C112.498 5.93214 113.243 6.25118 113.243 7.26146C113.189 8.32492 112.498 8.75031 112.498 8.75031Z" fill="#6D857D"/>
<path d="M96.1206 9.86691L81.4981 4.28375C81.3917 4.23058 81.3385 4.12423 81.3917 4.07106C81.4449 3.96471 81.5512 3.91154 81.6044 3.96471L96.227 9.54787C96.3333 9.60105 96.3865 9.70739 96.3333 9.76056C96.2802 9.81374 96.227 9.86691 96.1738 9.86691C96.1738 9.86691 96.1738 9.86691 96.1206 9.86691Z" fill="#6D857D"/>
<path d="M98.0352 11.4622L82.1365 5.40045C82.0302 5.34727 81.977 5.24093 82.0301 5.18775C82.0833 5.08141 82.1897 5.02824 82.2429 5.08141L98.1415 11.1963C98.2479 11.2495 98.3011 11.3558 98.2479 11.409C98.1947 11.4622 98.1416 11.5153 98.0884 11.5153C98.0352 11.5153 98.0352 11.5153 98.0352 11.4622Z" fill="#6D857D"/>
<path d="M98.3541 12.5788L82.4553 6.51714C82.349 6.46396 82.2958 6.35762 82.349 6.30444C82.4022 6.1981 82.5085 6.14493 82.5617 6.1981L98.4604 12.2598C98.5667 12.313 98.6199 12.4193 98.5668 12.4725C98.5136 12.5256 98.4604 12.5788 98.4072 12.5788H98.3541Z" fill="#6D857D"/>
<path d="M98.1413 13.6953L82.4553 7.68683C82.349 7.63365 82.2958 7.52731 82.349 7.47413C82.4022 7.36779 82.5085 7.31461 82.5617 7.36779L98.2477 13.3763C98.354 13.4295 98.4072 13.5358 98.3541 13.589C98.3009 13.6421 98.2477 13.6953 98.1945 13.6953H98.1413Z" fill="#6D857D"/>
<path d="M96.9182 14.4929L82.2425 8.8565C82.1361 8.80333 82.0829 8.69698 82.1361 8.64381C82.1893 8.53746 82.2956 8.48429 82.3488 8.53746L97.0245 14.1207C97.1309 14.1738 97.1841 14.2802 97.1309 14.3334C97.0777 14.3865 97.0245 14.4397 96.9714 14.4397C96.9182 14.4929 96.9182 14.4929 96.9182 14.4929Z" fill="#6D857D"/>
<path d="M98.6199 46.9284V26.9353C98.6199 26.7227 98.8326 26.51 99.0453 26.51C99.258 26.51 99.4706 26.7227 99.4706 26.9353V46.9284C99.4706 47.1411 99.258 47.3538 99.0453 47.3538C98.7794 47.3538 98.6199 47.1943 98.6199 46.9284Z" fill="#6D857D"/>
<path d="M95.9612 47.0347V28.2115C95.9612 27.5203 96.1739 26.829 96.9715 26.6163C97.131 26.5632 97.2905 26.6695 97.3437 26.829C97.3968 26.9885 97.2905 27.1481 97.131 27.2012C96.7056 27.3076 96.5993 27.5734 96.5993 28.2115V47.0347C96.5993 47.1943 96.4397 47.3538 96.2802 47.3538C96.0675 47.3538 95.9612 47.2474 95.9612 47.0347Z" fill="#6D857D"/>
<path d="M100.693 46.5031V26.5101C100.693 26.2974 100.906 26.0847 101.119 26.0847C101.332 26.0847 101.544 26.2974 101.544 26.5101V46.5031C101.544 46.7158 101.332 46.9285 101.119 46.9285C100.853 46.9285 100.693 46.7158 100.693 46.5031Z" fill="#6D857D"/>
<path d="M92.8237 46.8754V27.7331C92.8237 26.9887 93.3023 26.4038 93.9404 26.4038C94.0467 26.4038 94.1531 26.5101 94.1531 26.6165C94.1531 26.7228 94.0467 26.8291 93.9404 26.8291C93.5682 26.8291 93.2491 27.1482 93.2491 27.7331V46.8754C93.2491 46.9817 93.1428 47.088 93.0364 47.088C92.9301 47.088 92.8237 47.0349 92.8237 46.8754Z" fill="#6D857D"/>
<path d="M90.325 46.0246V27.1482C90.325 26.2442 90.8567 25.8189 91.2289 25.7657C91.3352 25.7657 91.4416 25.872 91.4947 25.9784C91.4947 26.0847 91.3884 26.1911 91.2821 26.1911C91.1757 26.1911 90.8035 26.3506 90.7503 27.095V45.9714C90.7503 46.0778 90.644 46.1841 90.5376 46.1841C90.4313 46.2373 90.325 46.1309 90.325 46.0246Z" fill="#6D857D"/>
<path d="M102.502 45.7587V25.9252C102.502 25.7125 102.714 25.4998 102.927 25.4998C103.14 25.4998 103.352 25.7125 103.352 25.9252V45.7587C103.352 45.9714 103.14 46.1841 102.927 46.1841C102.714 46.1841 102.502 45.9714 102.502 45.7587Z" fill="#6D857D"/>
<path d="M103.831 44.9078V25.3934C103.831 25.1807 104.044 24.968 104.256 24.968C104.469 24.968 104.682 25.1807 104.682 25.3934V44.9078C104.682 45.1205 104.469 45.3332 104.256 45.3332C104.044 45.3332 103.831 45.1737 103.831 44.9078Z" fill="#6D857D"/>
<path d="M105.001 43.6318V24.4895C105.001 24.2769 105.213 24.0642 105.426 24.0642C105.639 24.0642 105.851 24.2769 105.851 24.4895V43.6318C105.851 43.8445 105.639 44.0572 105.426 44.0572C105.213 44.0572 105.001 43.8445 105.001 43.6318Z" fill="#6D857D"/>
<path d="M106.17 21.7243C105.426 22.4687 104.256 23.16 102.714 23.6385C101.119 24.1171 99.2047 24.4361 97.1309 24.4361C93.6747 24.4361 90.6438 23.5854 88.8891 22.4156C88.7296 22.3092 88.5701 22.3624 88.4637 22.4687C88.3574 22.5751 88.4106 22.7878 88.5169 22.8941C90.4311 24.2234 93.5683 25.021 97.1309 25.021C100.002 25.021 102.555 24.4893 104.469 23.5854C105.426 23.16 106.17 22.6283 106.755 21.9902C106.915 21.8307 107.021 21.618 107.181 21.4584C106.808 21.5116 106.489 21.618 106.17 21.7243Z" fill="#6D857D"/>
<path d="M84.7539 62.0449C84.7539 62.8699 84.5229 63.1119 83.5879 63.1119V63.3539H87.1739V63.1119C86.2499 63.1119 86.0079 62.8699 86.0079 62.0449V60.0319C86.0079 59.8119 86.0959 59.7459 86.3159 59.7459H87.0419C87.9769 61.0219 88.9559 62.2319 90.0009 63.3539H91.7939V63.1119C91.2769 63.0679 90.1989 61.8359 88.3839 59.5039C89.6819 59.2069 90.3419 58.5029 90.3419 57.4799C90.3419 56.1709 89.3959 55.4339 87.6029 55.4339H83.5879V55.6759C84.4899 55.6759 84.7539 55.9289 84.7539 56.7429V62.0449ZM86.0079 59.0419V56.4899C86.0079 55.9179 86.1509 55.8959 86.7999 55.8959C88.3069 55.8959 89.0329 56.3469 89.0329 57.5239C89.0329 58.8439 88.1419 59.3389 86.3159 59.3389C86.0849 59.3389 86.0079 59.2399 86.0079 59.0419ZM92.644 63.5299H92.853C92.886 63.3429 93.018 63.2219 93.227 63.2219C93.502 63.2219 94.052 63.5299 94.976 63.5299C96.549 63.5299 97.517 62.6279 97.517 61.2969C97.517 60.2959 97.033 59.7349 95.999 59.1189L94.624 58.3049C93.876 57.8539 93.491 57.4469 93.491 56.8529C93.491 56.1709 94.03 55.6649 94.822 55.6649C95.735 55.6649 96.483 56.3359 96.934 57.6559H97.176L96.912 55.2689H96.703C96.681 55.4889 96.582 55.6209 96.406 55.6209C96.076 55.6209 95.592 55.2689 94.756 55.2689C93.337 55.2689 92.424 56.1489 92.424 57.3149C92.424 58.2169 92.897 58.7889 93.931 59.4159L95.163 60.1639C95.955 60.6479 96.329 61.1099 96.329 61.7149C96.329 62.5179 95.691 63.1229 94.844 63.1229C93.931 63.1229 93.029 62.3749 92.457 60.9559H92.215L92.644 63.5299ZM99.3797 62.0449C99.3797 62.8699 99.1487 63.1119 98.2137 63.1119V63.3539H101.8V63.1119C100.876 63.1119 100.634 62.8699 100.634 62.0449V59.9549C100.634 59.7459 100.667 59.7349 100.843 59.7349H101.514C103.329 59.7349 104.528 59.1629 104.528 57.4799C104.528 56.1599 103.582 55.4339 101.723 55.4339H98.2137V55.6759C99.1157 55.6759 99.3797 55.9289 99.3797 56.7429V62.0449ZM100.634 58.9429V56.5339C100.634 56.0279 100.722 55.8959 101.316 55.8959C102.57 55.8959 103.219 56.4349 103.219 57.5569C103.219 58.7009 102.493 59.3279 101.085 59.3279C100.744 59.3279 100.634 59.2399 100.634 58.9429ZM106.295 62.0449C106.295 62.8809 106.031 63.1119 105.129 63.1119V63.3539H111.663L112.323 61.2749H112.081C111.608 62.3859 110.871 62.8919 109.694 62.8919H108.341C107.615 62.8919 107.549 62.7269 107.549 62.0779V56.7429C107.549 55.9069 107.802 55.6759 108.715 55.6759V55.4339H105.129V55.6759C106.031 55.6759 106.295 55.9289 106.295 56.7429V62.0449Z" fill="#6D857D"/>
</g>
<defs>
<linearGradient id="paint0_linear_106_7757" x1="2.49743" y1="2.01467" x2="37.2869" y2="36.8041" gradientUnits="userSpaceOnUse">
<stop offset="0.0872932" stop-color="#C2B59B"/>
<stop offset="1" stop-color="#5C4E30"/>
</linearGradient>
<clipPath id="clip0_106_7757">
<rect width="124.913" height="67.0431" fill="white" transform="translate(0.826172 0.172302)"/>
</clipPath>
</defs>
</svg>
