<svg width="126" height="65" viewBox="0 0 126 65" fill="none" xmlns="http://www.w3.org/2000/svg">
<rect x="53.2451" y="11" width="1" height="42" fill="#F2F2F2"/>
<path d="M119.175 16.4839C119.175 16.4839 121.834 17.8132 120.983 20.6314C120.983 20.6314 118.803 18.5576 119.175 16.4839Z" fill="#B1A290"/>
<path d="M118.325 21.5354C118.325 21.5354 121.249 22.652 121.143 25.3639C121.143 25.3639 118.112 23.556 118.325 21.5354Z" fill="#B1A290"/>
<path d="M124.6 20.5251C124.6 20.5251 124.653 23.7687 121.622 25.098C121.675 25.098 122.26 21.4291 124.6 20.5251Z" fill="#B1A290"/>
<path d="M118.538 25.3105C118.538 25.3105 121.675 26.8526 121.303 29.7771C121.303 29.7771 118.112 27.4906 118.538 25.3105Z" fill="#B1A290"/>
<path d="M125.025 25.4702C125.025 25.4702 125.184 28.7138 122.1 29.9367C122.1 29.9899 122.579 26.2678 125.025 25.4702Z" fill="#B1A290"/>
<path d="M118.856 30.1494C118.856 30.1494 121.728 32.0105 120.452 34.7223C120.452 34.7223 117.793 32.1168 118.856 30.1494Z" fill="#B1A290"/>
<path d="M124.812 31.4788C124.812 31.4788 124.174 34.2438 121.09 34.8818C121.09 34.935 122.473 31.851 124.812 31.4788Z" fill="#B1A290"/>
<path d="M122.313 31.0002C122.313 31.1597 122.207 31.3192 121.994 31.3192C121.834 31.3192 121.675 31.2129 121.675 31.0002C121.675 30.8407 121.781 30.6812 121.994 30.6812C122.1 30.7343 122.26 30.8407 122.313 31.0002Z" fill="#B1A290"/>
<path d="M121.569 31.532C121.569 31.6915 121.462 31.7978 121.303 31.7978C121.143 31.7978 121.037 31.6915 120.984 31.532C120.984 31.3725 121.09 31.2661 121.25 31.2661C121.462 31.2661 121.569 31.4256 121.569 31.532Z" fill="#B1A290"/>
<path d="M122.738 26.7463C122.738 26.9058 122.632 27.0653 122.419 27.0653C122.26 27.0653 122.1 26.959 122.047 26.7463C122.047 26.5868 122.153 26.4272 122.313 26.4272C122.579 26.4272 122.738 26.5336 122.738 26.7463Z" fill="#B1A290"/>
<path d="M122.047 27.2248C122.047 27.3844 121.94 27.4907 121.781 27.4907C121.621 27.4907 121.515 27.3844 121.462 27.2248C121.462 27.0653 121.568 26.959 121.728 26.959C121.887 26.959 122.047 27.1185 122.047 27.2248Z" fill="#B1A290"/>
<path d="M122.366 31.9573C122.366 32.1168 122.26 32.2231 122.1 32.2231C121.941 32.2231 121.834 32.1168 121.781 31.9573C121.781 31.7978 121.888 31.6914 122.047 31.6914C122.26 31.6914 122.366 31.8509 122.366 31.9573Z" fill="#B1A290"/>
<path d="M120.931 21.5885C121.09 21.6417 121.197 21.8544 121.143 22.0139C121.09 22.1734 120.931 22.2798 120.718 22.2266C120.558 22.1734 120.452 22.0139 120.505 21.8012C120.558 21.6417 120.718 21.5354 120.931 21.5885Z" fill="#B1A290"/>
<path d="M121.143 22.4392C121.302 22.4924 121.356 22.6519 121.302 22.8114C121.249 22.9709 121.09 23.0241 120.93 22.9709C120.771 22.9177 120.718 22.7582 120.771 22.5987C120.824 22.4924 120.983 22.386 121.143 22.4392Z" fill="#B1A290"/>
<path d="M121.835 21.9076C121.994 21.9608 122.047 22.1203 121.994 22.2798C121.941 22.4394 121.781 22.4925 121.622 22.4394C121.462 22.3862 121.409 22.2267 121.462 22.0672C121.515 21.9076 121.675 21.8545 121.835 21.9076Z" fill="#B1A290"/>
<path d="M121.781 26.4272C121.781 26.5868 121.675 26.6931 121.515 26.6931C121.356 26.6931 121.249 26.5868 121.196 26.4272C121.196 26.2677 121.302 26.1614 121.462 26.1614C121.621 26.1614 121.781 26.2677 121.781 26.4272Z" fill="#B1A290"/>
<path d="M121.196 23.29L121.621 23.0242C121.621 23.0242 121.409 23.4496 121.462 24.2471C121.462 24.2471 121.356 23.4496 121.196 23.29Z" fill="#B1A290"/>
<path d="M121.675 27.9693L122.26 27.8098C122.26 27.8098 121.834 28.6074 121.781 29.2455C121.781 29.2455 121.781 28.2884 121.675 27.9693Z" fill="#B1A290"/>
<path d="M121.196 32.0635C121.196 32.0635 121.462 32.4889 121.781 32.4889C121.781 32.4889 121.302 32.9674 121.196 33.4991C121.196 33.5523 121.409 32.542 121.196 32.0635Z" fill="#B1A290"/>
<path d="M120.399 35.4667L120.718 35.4136C120.718 35.4136 120.133 38.4976 118.219 40.8904L117.581 40.1991C117.634 40.2523 119.442 39.0825 120.399 35.4667Z" fill="#B1A290"/>
<path d="M75.0425 16.4839C75.0425 16.4839 72.3838 17.8132 73.2346 20.6314C73.2878 20.6314 75.4679 18.5576 75.0425 16.4839Z" fill="#B1A290"/>
<path d="M75.9462 21.5354C75.9462 21.5354 73.0217 22.652 73.1281 25.3639C73.0749 25.3639 76.1058 23.556 75.9462 21.5354Z" fill="#B1A290"/>
<path d="M69.6187 20.5251C69.6187 20.5251 69.5656 23.7687 72.5964 25.098C72.5964 25.098 72.0115 21.4291 69.6187 20.5251Z" fill="#B1A290"/>
<path d="M75.7332 25.3105C75.7332 25.3105 72.596 26.8526 72.9682 29.7771C72.915 29.7771 76.1054 27.4906 75.7332 25.3105Z" fill="#B1A290"/>
<path d="M69.2465 25.4702C69.2465 25.4702 69.087 28.7138 72.171 29.9367C72.171 29.9899 71.6393 26.2678 69.2465 25.4702Z" fill="#B1A290"/>
<path d="M75.3613 30.1494C75.3613 30.1494 72.49 32.0105 73.7662 34.7223C73.7662 34.7223 76.478 32.1168 75.3613 30.1494Z" fill="#B1A290"/>
<path d="M69.4592 31.4788C69.4592 31.4788 70.0973 34.2438 73.1813 34.8818C73.1282 34.935 71.7988 31.851 69.4592 31.4788Z" fill="#B1A290"/>
<path d="M71.958 31.0002C71.958 31.1597 72.0644 31.3192 72.2239 31.3192C72.3834 31.3192 72.5429 31.2129 72.5429 31.0002C72.5429 30.8407 72.4366 30.6812 72.2239 30.6812C72.1175 30.7343 71.958 30.8407 71.958 31.0002Z" fill="#B1A290"/>
<path d="M72.6497 31.532C72.6497 31.6915 72.756 31.7978 72.9155 31.7978C73.075 31.7978 73.1814 31.6915 73.2345 31.532C73.2345 31.3725 73.1282 31.2661 72.9687 31.2661C72.8092 31.2661 72.7028 31.4256 72.6497 31.532Z" fill="#B1A290"/>
<path d="M71.5332 26.7463C71.5332 26.9058 71.6395 27.0653 71.8522 27.0653C72.0117 27.0653 72.1713 26.959 72.1713 26.7463C72.1713 26.5868 72.0649 26.4272 71.8522 26.4272C71.6927 26.4272 71.5332 26.5336 71.5332 26.7463Z" fill="#B1A290"/>
<path d="M72.2239 27.2248C72.2239 27.3844 72.3302 27.4907 72.4897 27.4907C72.6493 27.4907 72.7556 27.3844 72.8088 27.2248C72.8088 27.0653 72.7024 26.959 72.5429 26.959C72.3302 26.959 72.2239 27.1185 72.2239 27.2248Z" fill="#B1A290"/>
<path d="M71.8521 31.9573C71.8521 32.1168 71.9584 32.2231 72.1179 32.2231C72.2774 32.2231 72.3838 32.1168 72.4369 31.9573C72.4369 31.7978 72.3306 31.6914 72.1711 31.6914C72.0116 31.6914 71.9052 31.8509 71.8521 31.9573Z" fill="#B1A290"/>
<path d="M73.341 21.5885C73.1815 21.6417 73.0752 21.8544 73.1283 22.0139C73.1815 22.1734 73.341 22.2798 73.5005 22.2266C73.66 22.1734 73.7664 22.0139 73.7132 21.8012C73.7132 21.6417 73.5005 21.5354 73.341 21.5885Z" fill="#B1A290"/>
<path d="M73.128 22.4392C72.9684 22.4924 72.9152 22.6519 72.9684 22.8114C73.0216 22.9709 73.1811 23.0241 73.3406 22.9709C73.5002 22.9177 73.5533 22.7582 73.5002 22.5987C73.3938 22.4924 73.2343 22.386 73.128 22.4392Z" fill="#B1A290"/>
<path d="M72.437 21.9076C72.2775 21.9608 72.2243 22.1203 72.2775 22.2798C72.3307 22.4394 72.4902 22.4925 72.6497 22.4394C72.8092 22.3862 72.8624 22.2267 72.8092 22.0672C72.7561 21.9076 72.5965 21.8545 72.437 21.9076Z" fill="#B1A290"/>
<path d="M72.4897 26.4272C72.4897 26.5868 72.5961 26.6931 72.7556 26.6931C72.9151 26.6931 73.0215 26.5868 73.0746 26.4272C73.0746 26.2677 72.9683 26.1614 72.8088 26.1614C72.5961 26.1614 72.4897 26.2677 72.4897 26.4272Z" fill="#B1A290"/>
<path d="M73.075 23.29L72.6497 23.0242C72.6497 23.0242 72.8623 23.4496 72.8092 24.2471C72.8092 24.2471 72.9155 23.4496 73.075 23.29Z" fill="#B1A290"/>
<path d="M72.5966 27.9693L72.0117 27.8098C72.0117 27.8098 72.4371 28.6074 72.4371 29.2455C72.4903 29.2455 72.4903 28.2884 72.5966 27.9693Z" fill="#B1A290"/>
<path d="M73.0219 32.0635C73.0219 32.0635 72.756 32.4889 72.437 32.4889C72.437 32.4889 72.9156 32.9674 73.0219 33.4991C73.0219 33.5523 72.8624 32.542 73.0219 32.0635Z" fill="#B1A290"/>
<path d="M73.8727 35.4667L73.5005 35.4136C73.5005 35.4136 74.0854 38.4976 75.9996 40.8904L76.6377 40.1991C76.6377 40.2523 74.8298 39.0825 73.8727 35.4667Z" fill="#B1A290"/>
<path d="M107.584 11.0601C105.085 11.7514 99.0236 13.5061 95.78 14.4632L95.8332 14.729C97.4284 15.0481 97.8006 17.1218 96.4181 18.2916L96.4713 18.5043C99.5553 17.5472 106.149 15.4735 108.329 14.7822C111.307 13.8783 110.775 10.2093 107.584 11.0601ZM108.967 13.8783V11.645C108.967 11.645 109.552 11.8577 109.552 12.6553C109.552 13.5061 108.967 13.8783 108.967 13.8783Z" fill="#6D857D"/>
<path d="M95.7799 14.7823L83.7096 10.2094C83.6565 10.1562 83.6033 10.1031 83.6033 9.99673C83.6564 9.94356 83.7096 9.89038 83.816 9.89038L95.8862 14.4633C95.9394 14.5164 95.9926 14.5696 95.9926 14.6759C95.9394 14.7291 95.8862 14.7823 95.7799 14.7823C95.8331 14.7823 95.8331 14.7823 95.7799 14.7823Z" fill="#6D857D"/>
<path d="M97.3223 16.1116L84.3481 11.2197C84.2949 11.1665 84.2417 11.1133 84.2417 11.007C84.2949 10.9538 84.3481 10.9006 84.4544 10.9006L97.4286 15.7925C97.4818 15.8457 97.5349 15.8989 97.5349 16.0052C97.4818 16.0584 97.4286 16.1116 97.3223 16.1116Z" fill="#6D857D"/>
<path d="M97.5881 16.9624L84.6139 12.0705C84.5607 12.0173 84.5076 11.9642 84.5076 11.8578C84.5607 11.8046 84.6139 11.7515 84.7203 11.7515L97.6945 16.6434C97.7476 16.6966 97.8008 16.7497 97.8008 16.8561C97.7476 16.9624 97.6945 16.9624 97.5881 16.9624Z" fill="#6D857D"/>
<path d="M97.4286 17.8663L84.6139 13.0275C84.5607 12.9744 84.5076 12.9212 84.5076 12.8148C84.5607 12.7617 84.6139 12.7085 84.7203 12.7085L97.5349 17.5472C97.5881 17.6004 97.6413 17.6536 97.6413 17.7599C97.5881 17.8663 97.5349 17.8663 97.4286 17.8663Z" fill="#6D857D"/>
<path d="M96.4183 18.5045L84.3481 13.9316C84.2949 13.8784 84.2417 13.8252 84.2417 13.7189C84.2949 13.6657 84.3481 13.6125 84.4544 13.6125L96.5247 18.1854C96.5778 18.2386 96.631 18.2918 96.631 18.3981C96.5778 18.4513 96.5247 18.5045 96.4183 18.5045Z" fill="#6D857D"/>
<path d="M110.03 3.29704C106.893 4.14781 99.3959 6.3279 95.3547 7.55088L95.4079 7.92309C97.3753 8.34847 97.8539 10.9008 96.1523 12.3364L96.2055 12.6023C100.034 11.4325 108.223 8.82703 110.934 7.97626C114.657 6.80646 114.018 2.23358 110.03 3.29704ZM111.785 6.80646V3.98829C111.785 3.98829 112.53 4.30733 112.53 5.31761C112.476 6.38107 111.785 6.80646 111.785 6.80646Z" fill="#6D857D"/>
<path d="M95.4077 7.92306L80.7852 2.3399C80.6788 2.28673 80.6256 2.18038 80.6788 2.12721C80.732 2.02086 80.8383 1.96769 80.8915 2.02086L95.5141 7.60402C95.6204 7.6572 95.6736 7.76354 95.6204 7.81671C95.5673 7.86989 95.5141 7.92306 95.4609 7.92306C95.4609 7.92306 95.4609 7.92306 95.4077 7.92306Z" fill="#6D857D"/>
<path d="M97.3223 9.51832L81.4236 3.4566C81.3173 3.40342 81.2641 3.29708 81.3172 3.2439C81.3704 3.13756 81.4768 3.08439 81.53 3.13756L97.4286 9.25245C97.535 9.30562 97.5882 9.41197 97.535 9.46514C97.4818 9.51832 97.4287 9.57149 97.3755 9.57149C97.3223 9.57149 97.3223 9.57149 97.3223 9.51832Z" fill="#6D857D"/>
<path d="M97.6412 10.635L81.7424 4.5733C81.6361 4.52012 81.5829 4.41378 81.6361 4.3606C81.6893 4.25426 81.7956 4.20109 81.8488 4.25426L97.7475 10.316C97.8538 10.3692 97.907 10.4755 97.8539 10.5287C97.8007 10.5818 97.7475 10.635 97.6943 10.635H97.6412Z" fill="#6D857D"/>
<path d="M97.4284 11.7515L81.7424 5.74298C81.6361 5.6898 81.5829 5.58346 81.6361 5.53028C81.6893 5.42394 81.7956 5.37076 81.8488 5.42394L97.5348 11.4325C97.6411 11.4857 97.6943 11.592 97.6412 11.6452C97.588 11.6983 97.5348 11.7515 97.4816 11.7515H97.4284Z" fill="#6D857D"/>
<path d="M96.2053 12.549L81.5296 6.91265C81.4232 6.85948 81.37 6.75313 81.4232 6.69996C81.4764 6.59361 81.5827 6.54044 81.6359 6.59361L96.3116 12.1768C96.418 12.2299 96.4712 12.3363 96.418 12.3895C96.3648 12.4426 96.3116 12.4958 96.2585 12.4958C96.2053 12.549 96.2053 12.549 96.2053 12.549Z" fill="#6D857D"/>
<path d="M97.907 44.9846V24.9915C97.907 24.7789 98.1197 24.5662 98.3324 24.5662C98.5451 24.5662 98.7577 24.7789 98.7577 24.9915V44.9846C98.7577 45.1973 98.5451 45.41 98.3324 45.41C98.0665 45.41 97.907 45.2505 97.907 44.9846Z" fill="#6D857D"/>
<path d="M95.2483 45.0909V26.2677C95.2483 25.5765 95.461 24.8852 96.2586 24.6725C96.4181 24.6194 96.5776 24.7257 96.6308 24.8852C96.6839 25.0447 96.5776 25.2043 96.4181 25.2574C95.9927 25.3638 95.8864 25.6296 95.8864 26.2677V45.0909C95.8864 45.2505 95.7268 45.41 95.5673 45.41C95.3546 45.41 95.2483 45.3036 95.2483 45.0909Z" fill="#6D857D"/>
<path d="M99.9805 44.5593V24.5663C99.9805 24.3536 100.193 24.1409 100.406 24.1409C100.619 24.1409 100.831 24.3536 100.831 24.5663V44.5593C100.831 44.772 100.619 44.9847 100.406 44.9847C100.14 44.9847 99.9805 44.772 99.9805 44.5593Z" fill="#6D857D"/>
<path d="M92.1108 44.9316V25.7893C92.1108 25.0449 92.5894 24.46 93.2275 24.46C93.3338 24.46 93.4402 24.5663 93.4402 24.6727C93.4402 24.779 93.3338 24.8853 93.2275 24.8853C92.8553 24.8853 92.5362 25.2044 92.5362 25.7893V44.9316C92.5362 45.0379 92.4299 45.1442 92.3235 45.1442C92.2172 45.1442 92.1108 45.0911 92.1108 44.9316Z" fill="#6D857D"/>
<path d="M89.6121 44.0807V25.2043C89.6121 24.3003 90.1438 23.875 90.516 23.8218C90.6223 23.8218 90.7287 23.9281 90.7818 24.0345C90.7818 24.1408 90.6755 24.2472 90.5692 24.2472C90.4628 24.2472 90.0906 24.4067 90.0374 25.1511V44.0275C90.0374 44.1339 89.9311 44.2402 89.8247 44.2402C89.7184 44.2934 89.6121 44.187 89.6121 44.0807Z" fill="#6D857D"/>
<path d="M101.789 43.8148V23.9813C101.789 23.7686 102.001 23.5559 102.214 23.5559C102.427 23.5559 102.639 23.7686 102.639 23.9813V43.8148C102.639 44.0275 102.427 44.2402 102.214 44.2402C102.001 44.2402 101.789 44.0275 101.789 43.8148Z" fill="#6D857D"/>
<path d="M103.118 42.964V23.4496C103.118 23.2369 103.331 23.0242 103.543 23.0242C103.756 23.0242 103.969 23.2369 103.969 23.4496V42.964C103.969 43.1767 103.756 43.3894 103.543 43.3894C103.331 43.3894 103.118 43.2299 103.118 42.964Z" fill="#6D857D"/>
<path d="M104.288 41.688V22.5457C104.288 22.3331 104.5 22.1204 104.713 22.1204C104.926 22.1204 105.138 22.3331 105.138 22.5457V41.688C105.138 41.9007 104.926 42.1134 104.713 42.1134C104.5 42.1134 104.288 41.9007 104.288 41.688Z" fill="#6D857D"/>
<path d="M105.457 19.7805C104.713 20.5249 103.543 21.2162 102.001 21.6947C100.406 22.1733 98.4918 22.4923 96.418 22.4923C92.9618 22.4923 89.9309 21.6416 88.1762 20.4718C88.0167 20.3654 87.8572 20.4186 87.7508 20.5249C87.6445 20.6313 87.6977 20.844 87.804 20.9503C89.7182 22.2796 92.8554 23.0772 96.418 23.0772C99.2894 23.0772 101.842 22.5455 103.756 21.6416C104.713 21.2162 105.457 20.6845 106.042 20.0464C106.202 19.8869 106.308 19.6742 106.468 19.5146C106.095 19.5678 105.776 19.6742 105.457 19.7805Z" fill="#6D857D"/>
<path d="M79.7218 52.5884C78.871 52.5884 76.4782 52.5884 76.2655 52.5884C76.106 52.5884 76.106 52.8542 76.3187 52.8542C76.7441 52.8542 77.2226 53.1201 77.2226 53.5455C77.2226 54.0241 77.2226 60.0326 77.2226 60.777C77.2226 61.5746 76.6909 61.6278 76.3187 61.7341C76.0529 61.7873 76.106 61.9468 76.2124 61.9468C76.3187 61.9468 79.1901 61.9468 79.4028 61.9468C79.5623 61.9468 79.5623 61.7873 79.4028 61.7873C79.3496 61.7873 79.0837 61.7341 78.8178 61.6278C78.552 61.5214 78.2861 61.3088 78.2861 60.9365C78.2861 60.8302 78.2861 59.3414 78.2861 57.7462C78.3924 57.7462 78.6052 57.7993 78.871 57.7993C79.6154 57.7993 82.3804 57.5866 82.6463 55.247C82.859 53.1733 80.9448 52.5884 79.7218 52.5884ZM81.5828 55.4065C81.4233 57.5866 78.871 57.5335 78.3393 57.4803C78.3393 55.5661 78.3393 53.4923 78.3393 53.3328C78.3393 53.0138 78.6583 53.0138 79.1369 53.0138C79.5623 53.0138 81.7423 53.2265 81.5828 55.4065Z" fill="#6D857D"/>
<path d="M97.6942 61.7342C97.2688 61.7342 96.6839 61.4683 96.6839 61.0429C96.6839 60.9366 96.6839 54.0773 96.6839 53.5987C96.6839 53.1202 97.2688 52.9075 97.6942 52.9075C97.9069 52.9075 97.9601 52.6416 97.7474 52.6416C97.5347 52.6416 95.5673 52.6416 94.7165 52.6416C94.5038 52.6416 94.5038 52.9075 94.7165 52.9075C95.3014 52.9606 95.5673 53.2797 95.5673 53.5987C95.5673 53.7582 95.5673 60.2453 95.5673 60.9898C95.5673 61.3088 95.4609 61.4151 95.1419 61.4151H91.7389C91.3666 61.4151 91.3134 61.2556 91.3134 60.9898C91.3134 60.8302 91.3134 53.7582 91.3134 53.5987C91.3134 53.2797 91.473 52.9606 92.0579 52.9075C92.2706 52.9075 92.2706 52.6416 92.0579 52.6416C91.792 52.6416 91.3135 52.6416 90.8349 52.6416C90.7817 52.6416 90.7286 52.6416 90.7286 52.6416C90.25 52.6416 89.7715 52.6416 89.5056 52.6416C89.2929 52.6416 89.3461 52.9075 89.5056 52.9075C90.0373 52.9606 90.25 53.2797 90.25 53.5987C90.25 53.7582 90.25 60.8302 90.25 60.9898C90.25 61.3088 90.1437 61.4151 89.8246 61.4151H86.6342C86.262 61.4151 86.2089 61.2556 86.2089 60.9898C86.2089 60.2453 86.2089 53.7582 86.2089 53.5987C86.2089 53.2797 86.4747 52.9606 87.0596 52.9075C87.2723 52.9075 87.3255 52.6416 87.1128 52.6416C86.2089 52.6416 84.2415 52.6416 84.0819 52.6416C83.8692 52.6416 83.9224 52.9075 84.1351 52.9075C84.5605 52.9075 85.1454 53.1733 85.1454 53.5987C85.1454 54.0773 85.1454 60.9366 85.1454 61.0429C85.1454 61.5215 84.5605 61.7342 84.1351 61.7342C83.9224 61.7342 83.8692 62 84.0819 62C84.2946 62 86.262 62 87.1128 62H90.9413H90.9944H94.8229C95.7268 62 97.6942 62 97.8538 62C97.9069 62 97.8537 61.7342 97.6942 61.7342Z" fill="#6D857D"/>
<path d="M106.946 61.7341C106.521 61.7341 105.936 61.4683 105.936 61.0429C105.936 60.8834 105.936 53.8114 105.936 53.5987C105.936 53.2796 106.202 52.9606 106.787 52.9074C107 52.9074 107.053 52.6416 106.787 52.6416C105.883 52.6416 103.915 52.6416 103.756 52.6416C103.543 52.6416 103.596 52.9074 103.809 52.9074C104.235 52.9074 104.819 53.1733 104.819 53.5987C104.819 53.7582 104.819 55.6724 104.819 57.5335C104.5 57.6398 104.075 57.693 103.49 57.693C103.118 57.693 102.693 57.6398 102.267 57.4803C101.523 57.2144 100.938 56.6827 100.938 55.0875C100.938 54.2899 100.938 53.6518 100.938 53.5455C100.938 53.2265 101.204 52.9074 101.789 52.8542C102.001 52.8542 102.054 52.5884 101.842 52.5884C100.938 52.5884 98.9172 52.5884 98.7577 52.5884C98.545 52.5884 98.5982 52.8542 98.8109 52.8542C99.2363 52.8542 99.8744 53.1201 99.8744 53.5455C99.8744 53.705 99.8744 54.2899 99.8744 55.0875C99.8744 56.4168 100.619 57.4803 101.629 57.8525C102.48 58.1715 103.065 58.1715 103.49 58.1715C104.022 58.1715 104.447 58.0652 104.819 58.012C104.819 59.554 104.819 60.8834 104.819 60.9365C104.819 61.2556 104.554 61.5746 103.969 61.6278C103.756 61.6278 103.703 61.8936 103.969 61.8936C104.873 61.8936 106.84 61.8936 107 61.8936C107.159 62 107.106 61.7341 106.946 61.7341Z" fill="#6D857D"/>
<path d="M117.953 61.7342C117.528 61.7342 116.89 61.4683 116.89 61.0429C116.89 60.9898 116.89 53.7582 116.89 53.5987C116.89 53.1202 117.475 52.9075 117.9 52.9075C118.113 52.9075 118.166 52.6416 117.953 52.6416C117.9 52.6416 117.794 52.6416 117.634 52.6416C117.102 52.6416 114.656 52.6416 112.689 52.6416C111.147 52.6416 108.967 52.6416 108.435 52.6416C108.276 52.6416 108.116 52.6416 108.116 52.6416C107.903 52.6416 107.957 52.9075 108.169 52.9075C108.595 52.9075 109.18 53.1733 109.18 53.5987C109.18 53.7582 109.18 60.9898 109.18 61.0429C109.18 61.362 108.967 61.681 108.329 61.7342C108.116 61.7342 108.063 62 108.276 62C109.18 62 111.147 62 111.306 62C111.519 62 111.519 61.7342 111.253 61.7342C110.828 61.7342 110.19 61.4683 110.19 61.0429C110.19 60.8834 110.19 56.7359 110.19 53.3329C110.19 53.2265 110.243 53.1733 110.403 53.1733C110.828 53.1733 111.466 53.1733 112.476 53.1733C112.529 53.1733 112.636 53.1733 112.689 53.1733C114.071 53.1733 114.975 53.1733 115.401 53.1733C115.56 53.1733 115.613 53.2797 115.613 53.386C115.613 56.7891 115.613 60.9366 115.613 61.0429C115.613 61.362 115.348 61.681 114.763 61.7342C114.55 61.7342 114.497 62 114.71 62C115.613 62 117.581 62 117.74 62C118.166 62 118.166 61.7342 117.953 61.7342Z" fill="#6D857D"/>
<path d="M36.2986 3.05148C36.2986 3.05148 34.717 2.87576 31.9582 2.60632C29.2462 2.34273 27.3835 1.08924 24.7653 0.603071C22.6859 0.21648 20.173 0.0524718 19.3413 0.00561233C19.1538 -0.00610255 18.9664 -0.00610255 18.779 0.00561233C17.9472 0.0524718 15.4344 0.21648 13.355 0.603071C10.7425 1.08924 8.87402 2.34273 6.16203 2.60632C3.40317 2.8699 1.82166 3.05148 1.82166 3.05148C1.82166 3.05148 0 3.27992 0 3.53765C0 3.79538 0 23.8981 0 23.8981C0 23.8981 0.0175723 27.4946 0.749752 30.1949C1.48193 32.8951 2.58313 36.7435 5.74615 40.5157C8.90917 44.2878 11.8262 46.2149 11.8262 46.2149C11.8262 46.2149 16.9866 49.4424 19.066 50.0399C19.066 48.7746 19.066 5.90405 19.066 0.550354C19.066 5.90405 19.066 48.7746 19.066 50.0399C21.1395 49.4424 26.3058 46.2149 26.3058 46.2149C26.3058 46.2149 29.2228 44.282 32.3858 40.5157C35.5488 36.7493 36.65 32.8951 37.3822 30.1949C38.1144 27.4946 38.1319 23.8981 38.1319 23.8981C38.1319 23.8981 38.1319 3.79538 38.1319 3.54351C38.1319 3.27992 36.2986 3.05148 36.2986 3.05148Z" fill="url(#paint0_linear)"/>
<path d="M3.00488 23.1602C3.00488 23.9685 3.00488 24.4488 3.00488 24.4488C3.00488 24.4488 3.0166 27.4771 3.63749 29.7498C4.25252 32.0225 5.18385 35.2675 7.84898 38.4422C10.5141 41.6169 12.9684 43.2453 12.9684 43.2453C12.9684 43.2453 17.174 45.8753 18.9781 46.4376V23.1602H3.00488Z" fill="#741C2F"/>
<path d="M18.9781 22.9846V3.12793C18.9313 3.12793 18.8785 3.13379 18.8317 3.13379C18.1346 3.17479 16.0143 3.31537 14.2629 3.63753C12.0605 4.04755 10.4907 5.10189 8.20629 5.32447C5.88674 5.54705 4.55125 5.69935 4.55125 5.69935C4.55125 5.69935 3.00488 5.89264 3.00488 6.10937C3.00488 6.28509 3.00488 18.6677 3.00488 22.9905H18.9781V22.9846Z" fill="#616086"/>
<path d="M35.1212 23.1602C35.1212 23.9685 35.1212 24.4488 35.1212 24.4488C35.1212 24.4488 35.1095 27.4771 34.4886 29.7498C33.8736 32.0225 32.9422 35.2675 30.2771 38.4422C27.612 41.6169 25.1577 43.2453 25.1577 43.2453C25.1577 43.2453 20.952 45.8753 19.1479 46.4376V23.1602H35.1212Z" fill="#616086"/>
<path d="M19.1538 22.9846V3.12793C19.2007 3.12793 19.2534 3.13379 19.3002 3.13379C19.9973 3.17479 22.1177 3.31537 23.869 3.63753C26.0714 4.04755 27.6412 5.10189 29.9256 5.32447C32.2452 5.54705 33.5807 5.69935 33.5807 5.69935C33.5807 5.69935 35.127 5.89264 35.127 6.10937C35.127 6.28509 35.127 18.6677 35.127 22.9905H19.1538V22.9846Z" fill="#741C2F"/>
<path d="M7.60332 17.092C7.72046 16.0201 7.94305 15.1239 8.2242 14.3742C10.2626 13.396 11.6625 13.1676 12.1428 13.1324C12.3303 13.1207 12.5177 13.1793 12.6641 13.2964L15.5519 15.5457C15.5519 15.5457 13.2909 13.5073 12.5939 12.8864C10.5613 12.8688 8.73966 14.0052 8.24178 14.3449C9.61242 10.7309 12.4123 10.5551 12.4123 10.5551C12.4123 10.5551 11.2935 10.1451 10.1044 9.72925C8.84509 10.3326 8.28864 10.9769 7.66775 12.1659C7.40416 12.6697 7.35145 13.642 7.38073 14.5909C6.11553 13.6362 4.04199 13.0387 4.04199 13.0387C4.04199 13.0387 4.04199 13.0387 4.04199 13.3257C5.03776 13.4253 7.16986 14.5909 7.38659 14.7081C7.43345 15.9323 7.60332 17.092 7.60332 17.092Z" fill="white"/>
<path d="M16.1195 16.9456C16.1195 16.9456 15.4928 16.7875 13.5247 16.6352C11.17 16.5942 7.96599 17.6017 7.96599 17.6017C7.96599 17.6017 9.98095 16.5005 12.4059 16.2837C12.4528 16.2779 12.5348 16.272 12.5875 16.2603C13.7824 16.0963 15.9321 16.4185 15.9321 16.4185L15.7915 15.9381C15.2116 15.7039 14.1397 15.6921 13.5188 15.6628C10.7366 15.6336 8.42287 16.9105 7.50325 17.4025C6.27905 16.6703 4.0415 16.0436 4.0415 16.0436V17.0862L6.7945 18.1523L4.0415 17.3849V17.8594L6.72421 18.5799L4.0415 18.1171V19.6166H6.60706C6.60706 19.6166 6.86479 20.2668 7.53254 20.2668C8.20029 20.2668 8.41115 19.6342 8.41115 19.6342H17.0509L16.1195 16.9456Z" fill="white"/>
<path d="M27.1786 13.7007H26.1243V19.7866H27.1786V13.7007Z" fill="white"/>
<path d="M29.539 13.7007H28.4846V19.7866H29.539V13.7007Z" fill="white"/>
<path d="M31.8996 13.7007H30.8452V19.7866H31.8996V13.7007Z" fill="white"/>
<path d="M34.2601 13.7007H33.2058V19.7866H34.2601V13.7007Z" fill="white"/>
<path d="M25.7725 12.4061H34.2657V10.5376L32.3328 9.82886L25.7725 12.4061Z" fill="white"/>
<path d="M23.8398 11.7677L32.3331 8.48755L34.2661 9.24902V9.8289L32.3331 9.13187L24.0741 12.3535L23.8398 11.7677Z" fill="white"/>
<path d="M15.6334 33.1766C15.4987 31.929 14.7138 31.724 14.7138 31.724C14.7138 31.724 12.1073 30.3709 12.0604 30.3182C12.0135 30.2655 11.9784 30.1073 11.9901 29.9667C12.0018 29.8262 12.3591 28.9827 12.3591 28.9827L12.447 28.9768C12.488 28.971 12.5231 28.9417 12.5349 28.9065C12.5934 28.7015 12.7574 28.0865 12.7867 27.9108C12.8277 27.6999 12.5876 27.7292 12.5876 27.7292C12.5876 27.7292 13.0913 25.3394 10.8479 25.3452C8.60451 25.3511 9.07897 27.5183 9.07897 27.5183L9.06725 27.7175C9.06725 27.7175 9.00282 27.6823 8.87981 27.7585C8.75681 27.8346 9.00868 28.971 9.12583 28.9768C9.23712 28.9827 9.24883 29.0823 9.24883 29.0823L9.61199 29.9785C9.67643 30.1366 9.61199 30.3182 9.45384 30.4002C9.02625 30.6169 8.08906 31.1031 6.54855 31.8938C6.3084 32.0168 6.20882 32.3097 6.32597 32.5499C9.92829 40.0767 16.0493 43.0464 16.0493 43.0464C16.0493 43.0464 15.7682 34.4243 15.6334 33.1766ZM11.0119 36.7145L9.25469 31.0387L9.92244 32.2101L10.8538 30.9859L11.7734 32.0989L12.4118 31.0972L11.0119 36.7145Z" fill="white"/>
<path d="M27.0144 33.7388C26.8211 33.0886 26.6571 32.0108 26.5575 31.5657C26.5575 31.5657 26.2471 31.8878 24.7007 34.553C23.1543 37.2181 23.4296 38.5302 23.4296 38.5302C23.4296 38.5302 26.5575 34.3655 27.0144 33.7388Z" fill="white"/>
<path d="M31.5306 25.4449C30.6051 25.9896 30.1014 26.5754 30.1014 26.5754C30.1014 26.5754 30.4353 28.3443 30.242 29.0413L30.16 27.8874C30.16 27.8874 29.9257 27.0322 29.8378 26.9912C29.7499 26.9502 29.0529 27.8933 29.0529 27.8933L28.8596 30.8044L28.7483 30.207C28.7483 30.207 28.555 28.11 28.4847 27.8991C28.4144 27.6883 28.3676 28.2213 28.145 28.7309C27.9224 29.2405 27.0321 30.9333 27.0145 31.1852C26.9969 31.4429 27.1902 33.3524 27.1902 33.3524L29.4922 30.5994L22.1528 40.7855C22.1528 40.7855 21.8424 41.3537 21.8658 41.5645C21.8893 41.7696 21.4558 42.5076 21.4558 42.5076L24.1502 39.0107C24.1502 39.0107 25.228 39.1513 27.0204 36.8142C28.8128 34.477 32.0578 30.2831 32.5849 27.4423C32.8427 25.9076 32.4561 24.9001 31.5306 25.4449Z" fill="white"/>
<path d="M5.42393 62.7744H2.03247V62.5401C2.74708 62.5167 3.10438 62.2707 3.10438 61.7962V55.6694C3.10438 55.1949 2.74708 54.9489 2.03247 54.9255V54.6912H5.42393V54.9255C4.70932 54.9489 4.35202 55.2008 4.35202 55.6694V60.613L8.27064 55.6694C8.27064 55.1949 7.91334 54.9489 7.19873 54.9255V54.6912H10.596V54.9255C9.87558 54.9489 9.51828 55.2008 9.51828 55.6694V61.7962C9.51828 62.2707 9.87558 62.5167 10.596 62.5401V62.7744H7.19873V62.5401C7.91334 62.5167 8.27064 62.2707 8.27064 61.7962V56.5245L4.35202 61.4389V61.7962C4.35202 62.2707 4.70932 62.5167 5.42393 62.5401V62.7744V62.7744Z" fill="#74613E"/>
<path d="M19.3881 65H19.1596C19.0015 64.4201 18.9077 64.0921 18.8785 64.0101C18.7144 63.5357 18.5446 63.2135 18.363 63.0553C18.1521 62.8679 17.8065 62.7742 17.3321 62.7742H10.8772V62.5399C11.5918 62.5165 11.9491 62.2704 11.9491 61.796V55.6691C11.9491 55.1947 11.5918 54.9486 10.8772 54.9252V54.6909H14.2687V54.9252C13.554 54.9486 13.1967 55.2005 13.1967 55.6691V61.5441C13.1967 62.042 13.554 62.288 14.2687 62.288H15.8209C16.5413 62.288 16.8986 62.042 16.8986 61.5441V55.6691C16.8986 55.1947 16.5413 54.9486 15.8209 54.9252V54.6909H19.2182V54.9252C18.5036 54.9486 18.1463 55.2005 18.1463 55.6691V61.2747C18.1463 61.7374 18.24 62.0479 18.4216 62.206C18.5914 62.3466 18.9077 62.4286 19.3881 62.4403V65Z" fill="#74613E"/>
<path d="M27.5242 62.7742H24.1328V62.5399C24.8474 62.5165 25.2047 62.2704 25.2047 61.796V58.9141C24.244 59.2539 23.4416 59.4296 22.8031 59.4296C21.327 59.4296 20.589 58.8438 20.589 57.6724V55.6691C20.589 55.1947 20.2317 54.9486 19.5171 54.9252V54.6909H22.9085V54.9252C22.1939 54.9486 21.8366 55.2005 21.8366 55.6691V57.5904C21.8366 58.4924 22.3345 58.9434 23.3303 58.9434C23.875 58.9434 24.5018 58.8263 25.2105 58.592V55.6691C25.2105 55.1947 24.8532 54.9486 24.1386 54.9252V54.6909H27.5301V54.9252C26.8155 54.9486 26.4582 55.2005 26.4582 55.6691V61.796C26.4582 62.2704 26.8155 62.5165 27.5301 62.5399V62.7742H27.5242Z" fill="#74613E"/>
<path d="M36.152 62.7742H32.7547V62.5399C33.4752 62.5165 33.8325 62.2704 33.8325 61.796V55.921C33.8325 55.4231 33.4752 55.1771 32.7547 55.1771H31.2025C30.4879 55.1771 30.1306 55.4231 30.1306 55.921V61.796C30.1306 62.2704 30.4879 62.5165 31.2025 62.5399V62.7742H27.811V62.5399C28.5256 62.5165 28.8829 62.2704 28.8829 61.796V55.6691C28.8829 55.1947 28.5256 54.9486 27.811 54.9252V54.6909H36.1579V54.9252C35.4433 54.9486 35.086 55.2005 35.086 55.6691V61.796C35.086 62.2704 35.4433 62.5165 36.1579 62.5399V62.7742H36.152Z" fill="#74613E"/>
<defs>
<linearGradient id="paint0_linear" x1="1.67126" y1="1.83919" x2="36.4607" y2="36.6286" gradientUnits="userSpaceOnUse">
<stop offset="0.0872932" stop-color="#C2B59B"/>
<stop offset="1" stop-color="#5C4E30"/>
</linearGradient>
<clipPath id="clip0">
<rect width="38.1319" height="65" fill="white"/>
</clipPath>
</defs>
</svg>