<?xml version="1.0" standalone="no"?>
<!DOCTYPE svg PUBLIC "-//W3C//DTD SVG 1.1//EN" "http://www.w3.org/Graphics/SVG/1.1/DTD/svg11.dtd" >
<svg xmlns="http://www.w3.org/2000/svg">
<metadata>Generated by IcoMoon</metadata>
<defs>
<font id="icomoon" horiz-adv-x="1024">
<font-face units-per-em="1024" ascent="960" descent="-64" />
<missing-glyph horiz-adv-x="1024" />
<glyph unicode="&#x20;" horiz-adv-x="512" d="" />
<glyph unicode="&#xe900;" glyph-name="move-up" d="M681.042 474.549l45.353-38.873-403.752-346.076-66.641 77.747 313.045 268.329-313.045 268.325 66.641 77.748 358.399-307.2z" />
<glyph unicode="&#xe901;" glyph-name="upward" d="M550.871 668.241l-38.872 45.353-346.074-403.752 77.748-66.642 268.326 313.047 268.325-313.047 77.747 66.642-307.2 358.399z" />
<glyph unicode="&#xe902;" glyph-name="backward" d="M538.547 278.958l-38.872-45.353-346.074 403.752 77.748 66.641 268.326-313.046 268.325 313.046 77.747-66.641-307.2-358.399z" />
<glyph unicode="&#xe903;" glyph-name="facebook" d="M512-64c-282.77 0-512 229.233-512 512 0 282.77 229.23 512 512 512 282.767 0 512-229.23 512-512 0-282.767-229.233-512-512-512zM619.633 653.189l57.836 0.026 0.005 101.852-84.28 0.134c-83.388 0-140.488-50.9-140.488-144.375v-80.539h-94.305v-109.222h94.305v-280.264h112.804v280.264h108.109l0.036 109.222h-108.145v69.729c0 31.625 8.776 53.174 54.124 53.174z" />
<glyph unicode="&#xe904;" glyph-name="instagram" d="M512-64c-282.77 0-512 229.233-512 512 0 282.77 229.23 512 512 512 282.767 0 512-229.23 512-512 0-282.767-229.233-512-512-512zM767.995 638.288c0 38.954-29.568 65.712-65.71 65.712h-380.568c-36.152 0-65.717-26.758-65.717-65.712v-380.578c0-38.953 29.565-65.71 65.717-65.71h380.568c36.142 0 65.71 26.757 65.71 65.71v380.578zM605.926 624.063c0 12.685 10.363 23.052 23.045 23.052h57.866c12.682 0 23.050-10.367 23.050-23.052v-55.172c0-12.68-10.368-23.052-23.050-23.052h-57.866c-12.682 0-23.045 10.372-23.045 23.052v55.172zM665.068 487.477h45.076v-216.276c0-11.197-9.16-20.357-20.357-20.357h-356.536c-11.197 0-20.355 9.165-20.355 20.357v216.276h47.023c-4.269-13.915-6.571-28.656-6.571-43.921 0-85.161 71.252-154.199 159.138-154.199 87.89 0 159.155 69.038 159.155 154.199 0 15.255-2.309 30.001-6.574 43.921zM409.655 449.112c0 55.029 46.040 99.635 102.826 99.635 56.796 0 102.835-44.605 102.835-99.635 0-55.031-46.044-99.636-102.835-99.636-56.786 0-102.826 44.605-102.826 99.636z" />
<glyph unicode="&#xe905;" glyph-name="twitter" d="M512-64c282.767 0 512 229.233 512 512 0 282.77-229.233 512-512 512-282.77 0-512-229.23-512-512 0-282.767 229.23-512 512-512zM764.421 603.811c1.034 0.472 2.248 0.179 2.98-0.687 0.732-0.87 0.799-2.114 0.174-3.047-13.947-20.887-31.247-38.93-51.4-53.671 0.164-4.054 0.241-8.117 0.241-12.202 0-146.702-111.631-298.448-298.446-298.448-57.111 0-112.712 16.292-160.799 47.13-0.996 0.635-1.421 1.884-1.022 3 0.398 1.106 1.542 1.792 2.695 1.664 8.076-0.952 16.319-1.439 24.505-1.439 44.437 0 86.493 13.732 122.073 39.803-42.654 3.594-79.298 32.461-92.487 73.626-0.272 0.85-0.073 1.792 0.519 2.463 0.598 0.671 1.51 0.968 2.381 0.804 11.814-2.253 23.834-2.381 35.418-0.512-43.981 13.676-74.893 54.867-74.893 101.779l0.010 1.363c0.021 0.891 0.509 1.71 1.279 2.15 0.771 0.446 1.731 0.451 2.502 0.016 11.458-6.361 24.164-10.457 37.174-12.019-25.27 20.152-40.111 50.693-40.111 83.357 0 18.846 4.987 37.373 14.426 53.566 0.419 0.718 1.164 1.19 1.998 1.253 0.839 0.084 1.641-0.278 2.171-0.928 51.737-63.457 127.825-102.523 209.2-107.547-1.363 6.833-2.051 13.87-2.051 20.976 0 58.747 47.791 106.54 106.548 106.54 28.887 0 56.801-11.867 76.79-32.612 22.559 4.599 44.037 12.89 63.872 24.652 0.906 0.54 2.053 0.456 2.883-0.2 0.824-0.655 1.157-1.757 0.835-2.763-6.728-21.033-19.85-39.376-37.458-52.622 16.589 2.884 32.691 7.766 47.995 14.557z" />
<glyph unicode="&#xe906;" glyph-name="vkontakte" d="M512-64c282.767 0 512 229.233 512 512 0 282.77-229.233 512-512 512-282.77 0-512-229.23-512-512 0-282.767 229.23-512 512-512zM749.875 364.897c15.212-14.403 30.418-28.805 43.873-44.943 8.1-9.713 15.729-19.748 21.54-31.017 8.279-16.092 0.804-33.766-13.614-34.708l-89.472 0.020c-23.112-1.905-41.492 7.424-57.011 23.214-8.361 8.515-16.317 17.408-24.279 26.307-3.82 4.27-7.639 8.54-11.505 12.769-4.859 5.325-10.004 10.373-16.108 14.341-12.206 7.921-22.794 5.494-29.788-7.24-7.122-12.979-8.76-27.336-9.421-41.779-0.983-21.105-7.342-26.614-28.518-27.607-45.228-2.115-88.169 4.751-128.059 27.556-35.198 20.122-62.444 48.512-86.174 80.676-46.22 62.664-81.628 131.457-113.439 202.216-7.157 15.931-1.916 24.463 15.657 24.794 29.207 0.567 58.42 0.49 87.626 0.026 11.888-0.185 19.751-6.985 24.31-18.204 15.778-38.834 35.128-75.789 59.381-110.057 6.456-9.13 13.053-18.221 22.445-24.667 10.372-7.117 18.268-4.762 23.158 6.81 3.126 7.358 4.483 15.222 5.164 23.104 2.318 26.997 2.598 53.994-1.426 80.883-2.509 16.828-11.964 27.691-28.748 30.875-8.545 1.617-7.29 4.782-3.132 9.659 7.207 8.443 13.976 13.658 27.474 13.658l101.126 0.019c15.933-3.12 19.497-10.277 21.658-26.329l0.097-112.362c-0.184-6.221 3.108-24.622 14.275-28.697 8.371-2.77 14.090 3.359 19.174 8.812 0.338 0.364 0.671 0.722 1.004 1.075 24.228 25.725 41.508 56.103 56.98 87.532 6.82 13.861 12.723 28.213 18.447 42.577 4.239 10.627 10.87 15.855 22.856 15.676l97.352-0.115c2.877 0 5.801-0.026 8.627-0.516 16.41-2.802 20.89-9.869 15.821-25.87-7.711-24.281-22.446-44.644-37.12-64.924-0.527-0.727-1.055-1.453-1.577-2.18-7.619-10.524-15.473-20.881-23.322-31.238-8.919-11.761-17.833-23.523-26.409-35.53-14.771-20.685-13.614-31.084 4.762-49.009 5.386-5.253 10.854-10.429 16.317-15.606z" />
<glyph unicode="&#xe907;" glyph-name="search" d="M768 480c0 159.058-128.942 288-288 288s-288-128.942-288-288c0-159.058 128.942-288 288-288s288 128.942 288 288zM715.469 176.646c-65.024-50.547-146.731-80.646-235.469-80.646-212.077 0-384 171.923-384 384s171.923 384 384 384c212.077 0 384-171.923 384-384 0-88.738-30.099-170.445-80.646-235.469l146.586-146.592c18.746-18.746 18.746-49.133 0-67.878s-49.133-18.746-67.878 0l-146.592 146.586z" />
<glyph unicode="&#xe908;" glyph-name="poor-vision" d="M171.989 421.312c15.349-23.024 38.374-53.715 69.001-84.342 61.384-61.382 151.64-120.97 271.029-120.97 119.392 0 209.648 59.587 271.030 120.97 30.627 30.627 53.651 61.318 69.002 84.342 7.315 10.976 12.854 20.157 16.611 26.688-3.757 6.531-9.296 15.712-16.611 26.688-15.35 23.024-38.374 53.715-69.002 84.342-61.382 61.382-151.638 120.97-271.030 120.97-119.389 0-209.645-59.587-271.029-120.97-30.627-30.627-53.652-61.318-69.001-84.342-7.316-10.976-12.854-20.157-16.611-26.688 3.757-6.531 9.295-15.712 16.611-26.688zM917.475 458.752c0.006-0.010 0.013-0.019-21.456-10.752 21.469-10.733 21.462-10.742 21.456-10.752l-0.013-0.026-0.032-0.070-0.106-0.205-0.352-0.688c-0.298-0.579-0.723-1.392-1.277-2.429-1.104-2.070-2.717-5.024-4.838-8.739-4.24-7.421-10.528-17.894-18.867-30.403-16.65-24.976-41.626-58.285-74.998-91.658-66.618-66.618-168.362-135.030-304.973-135.030s-238.355 68.413-304.97 135.030c-33.373 33.373-58.348 66.682-74.998 91.658-8.339 12.509-14.626 22.982-18.868 30.403-2.122 3.715-3.734 6.669-4.838 8.739-0.552 1.037-0.977 1.85-1.276 2.429l-0.457 0.893-0.048 0.096c-0.005 0.010-0.010 0.019 21.456 10.752-21.466 10.733-21.461 10.742-21.456 10.752l0.048 0.096 0.105 0.205 0.352 0.688c0.298 0.579 0.724 1.392 1.276 2.429 1.104 2.070 2.717 5.024 4.838 8.739 4.242 7.421 10.53 17.894 18.868 30.403 16.651 24.976 41.625 58.285 74.998 91.658 66.616 66.617 168.359 135.030 304.97 135.030s238.355-68.413 304.973-135.030c33.373-33.373 58.349-66.682 74.998-91.658 8.339-12.509 14.627-22.982 18.867-30.403 2.122-3.715 3.734-6.669 4.838-8.739 0.554-1.037 0.979-1.85 1.277-2.429l0.352-0.688 0.106-0.205 0.032-0.070 0.013-0.026zM128.020 448l-21.466-10.733-5.366 10.733 5.366 10.733 21.466-10.733zM896.019 448l21.469 10.733 5.366-10.733-5.366-10.733-21.469 10.733zM440.019 448c0 39.763 32.237 72 72 72 39.766 0 72-32.237 72-72s-32.234-72-72-72c-39.763 0-72 32.237-72 72zM512.019 568c-66.272 0-120-53.725-120-120s53.728-120 120-120c66.275 0 120 53.725 120 120s-53.725 120-120 120z" />
<glyph unicode="&#xe909;" glyph-name="navigation-line" horiz-adv-x="945" d="M644.006 456.138l-315.077-315.078-55.699 55.699 287.228 287.228-287.228 287.228 55.699 55.698 342.926-342.926-27.849-27.849z" />
<glyph unicode="&#xe90a;" glyph-name="expansion-arrow" horiz-adv-x="1109" d="M512.532 262.248l-341.333 341.333 60.339 60.34 311.164-311.164 311.161 311.164 60.339-60.34-371.5-371.503-30.17 30.17z" />
<glyph unicode="&#xe90b;" glyph-name="youtube" horiz-adv-x="1075" d="M551.9-64c-282.77 0-512 229.233-512 512 0 282.77 229.23 512 512 512 282.767 0 512-229.23 512-512 0-282.767-229.233-512-512-512zM857.743 585.489c-7.086 26.317-27.832 47.067-54.149 54.152-48.082 13.158-240.394 13.158-240.394 13.158s-192.317 0-240.396-12.653c-25.81-7.085-47.067-28.341-54.152-54.658-12.653-48.079-12.653-147.781-12.653-147.781s0-100.204 12.653-147.779c7.085-26.317 27.835-47.068 54.152-54.149 48.585-13.158 240.396-13.158 240.396-13.158s192.312 0 240.394 12.652c26.317 7.086 47.063 27.832 54.149 54.149 12.652 48.082 12.652 147.779 12.652 147.779s0.507 100.209-12.652 148.287zM501.967 345.6l159.926 92.109-159.926 92.11v-184.219z" />
<glyph unicode="&#xe90c;" glyph-name="list-circle" horiz-adv-x="1152" d="M611.5 192c-141.385 0-256 114.615-256 256s114.615 256 256 256c141.385 0 256-114.615 256-256s-114.615-256-256-256zM611.5-64c282.77 0 512 229.23 512 512s-229.23 512-512 512c-282.77 0-511.999-229.23-511.999-512s229.23-512 511.999-512z" />
<glyph unicode="&#xe90d;" glyph-name="list-disk" horiz-adv-x="1152" d="M1123.5 448c0-282.77-229.23-512-512-512s-511.999 229.23-511.999 512c0 282.77 229.23 512 511.999 512s512-229.23 512-512z" />
<glyph unicode="&#xe90e;" glyph-name="list-square" horiz-adv-x="1195" d="M132.667 960h1023.999v-1024h-1023.999v1024z" />
<glyph unicode="&#xe90f;" glyph-name="download" horiz-adv-x="1075" d="M513.398 335.908v316.892h76.8v-316.892l88.049 88.044 54.308-54.303-180.756-180.756-180.751 180.756 54.306 54.303 88.045-88.044zM155 241.367v1.833h76.8c0-48.558 0.037-82.412 2.416-108.657 2.331-25.718 6.666-40.34 13.019-51.343 10.111-17.51 24.653-32.056 42.166-42.168 11.003-6.349 25.625-10.685 51.343-13.015 26.246-2.381 60.098-2.417 108.657-2.417h204.798c48.563 0 82.412 0.036 108.662 2.417 25.718 2.33 40.335 6.666 51.338 13.015 17.516 10.112 32.056 24.658 42.168 42.168 6.354 11.003 10.685 25.626 13.020 51.343 2.376 26.245 2.412 60.099 2.412 108.657h76.8v-1.833c0.005-46.295 0.005-83.635-2.729-113.756-2.811-31.043-8.765-58.168-22.994-82.811-16.85-29.189-41.088-53.427-70.277-70.277-24.637-14.223-51.763-20.178-82.811-22.994-30.116-2.729-67.456-2.729-113.756-2.729h-208.463c-46.297 0-83.636 0-113.757 2.729-31.045 2.816-58.17 8.771-82.811 22.994-29.188 16.85-53.425 41.088-70.277 70.277-14.226 24.643-20.18 51.768-22.994 82.811-2.73 30.121-2.73 67.461-2.729 113.756z" />
<glyph unicode="&#xe910;" glyph-name="slider-arrow-next" horiz-adv-x="1056" d="M820.595 448l-553.13-485.248-63.309 72.166 470.868 413.082-470.868 413.081 63.309 72.166 553.13-485.247z" />
<glyph unicode="&#xe911;" glyph-name="slider-arrow-previous" horiz-adv-x="1056" d="M204.154 448l553.13-485.248 63.312 72.166-470.87 413.082 470.87 413.081-63.312 72.166-553.13-485.247z" />
<glyph unicode="&#xe912;" glyph-name="up-button-arrow" horiz-adv-x="1056" d="M512.378 658.913l353.942-353.94-67.882-67.882-286.061 286.058-286.058-286.058-67.882 67.882 353.94 353.94z" />
<glyph unicode="&#xe913;" glyph-name="gallery" d="M420.4 872.6h412.358c56.55 0 102.4-45.846 102.4-102.4v-412.358c0-56.55-45.85-102.4-102.4-102.4h-95.949v-104.038c0-70.692-57.308-128-128-128h-392.009c-70.693 0-128 57.308-128 128v392.010c0 70.693 57.307 128 128 128h101.2v98.786c0 56.554 45.846 102.4 102.4 102.4zM318 594.614h-101.2c-28.277 0-51.2-22.923-51.2-51.2v-392.010c0-28.278 22.923-51.2 51.2-51.2h392.009c28.278 0 51.2 22.922 51.2 51.2v104.038h-239.609c-56.554 0-102.4 45.85-102.4 102.4v236.772z" />
<glyph unicode="&#xe914;" glyph-name="expansion-group-arrow" horiz-adv-x="1088" d="M482.743 239.027l-384 384.003 67.882 67.882 350.059-350.059 350.061 350.059 67.878-67.882-417.94-417.942-33.941 33.939z" />
<glyph unicode="&#xe915;" glyph-name="filter-search" horiz-adv-x="1088" d="M843.891 491.446c0 204.764-165.997 370.756-370.76 370.756s-370.756-165.993-370.756-370.756c0-204.765 165.994-370.755 370.756-370.755s370.76 165.99 370.76 370.755zM767.507 129.203c-80.314-65.344-182.769-104.512-294.376-104.512-257.782 0-466.757 208.973-466.757 466.755s208.974 466.757 466.757 466.757c257.78 0 466.76-208.974 466.76-466.757 0-111.599-39.168-214.051-104.506-294.358l177.35-177.35c18.746-18.746 18.746-49.139 0-67.885s-49.139-18.746-67.885 0l-177.344 177.35z" />
</font>
</defs>
</svg>
